<svg xmlns="http://www.w3.org/2000/svg" width="940" height="500" viewBox="0 0 940 500">
<title>Current component coefficient candidates</title>
<rect width="100%" height="100%" fill="#FFFFFF"/>
<text x="38.0" y="38.0" font-family="Arial, sans-serif" font-size="22" font-weight="700" fill="#18181B" text-anchor="start">Current accepted candidate coefficients</text>
<text x="38.0" y="62.0" font-family="Arial, sans-serif" font-size="13" font-weight="400" fill="#52525B" text-anchor="start">Memory bars are primary pJ/bit; outlined ticks show auxiliary checks where available. Values are effective coefficients.</text>
<line x1="230.0" y1="85.0" x2="230.0" y2="329.0" stroke="#D4D4D8" stroke-width="1.0"/>
<text x="230.0" y="351.0" font-family="Arial, sans-serif" font-size="11" font-weight="400" fill="#52525B" text-anchor="middle">0</text>
<line x1="326.9" y1="85.0" x2="326.9" y2="329.0" stroke="#D4D4D8" stroke-width="1.0"/>
<text x="326.9" y="351.0" font-family="Arial, sans-serif" font-size="11" font-weight="400" fill="#52525B" text-anchor="middle">1</text>
<line x1="423.7" y1="85.0" x2="423.7" y2="329.0" stroke="#D4D4D8" stroke-width="1.0"/>
<text x="423.7" y="351.0" font-family="Arial, sans-serif" font-size="11" font-weight="400" fill="#52525B" text-anchor="middle">2</text>
<line x1="520.6" y1="85.0" x2="520.6" y2="329.0" stroke="#D4D4D8" stroke-width="1.0"/>
<text x="520.6" y="351.0" font-family="Arial, sans-serif" font-size="11" font-weight="400" fill="#52525B" text-anchor="middle">3</text>
<line x1="617.5" y1="85.0" x2="617.5" y2="329.0" stroke="#D4D4D8" stroke-width="1.0"/>
<text x="617.5" y="351.0" font-family="Arial, sans-serif" font-size="11" font-weight="400" fill="#52525B" text-anchor="middle">4</text>
<line x1="714.3" y1="85.0" x2="714.3" y2="329.0" stroke="#D4D4D8" stroke-width="1.0"/>
<text x="714.3" y="351.0" font-family="Arial, sans-serif" font-size="11" font-weight="400" fill="#52525B" text-anchor="middle">5</text>
<line x1="811.2" y1="85.0" x2="811.2" y2="329.0" stroke="#D4D4D8" stroke-width="1.0"/>
<text x="811.2" y="351.0" font-family="Arial, sans-serif" font-size="11" font-weight="400" fill="#52525B" text-anchor="middle">6</text>
<text x="510.0" y="375.0" font-family="Arial, sans-serif" font-size="12" font-weight="700" fill="#52525B" text-anchor="middle">pJ/bit</text>
<text x="38.0" y="127.0" font-family="Arial, sans-serif" font-size="14" font-weight="700" fill="#18181B" text-anchor="start">Global L1 hit</text>
<text x="38.0" y="146.0" font-family="Arial, sans-serif" font-size="11" font-weight="400" fill="#52525B" text-anchor="start">min 0.103, median 0.148, max 0.336; duration 0.156, 60s 0.119, LR8 paired 0.109</text>
<rect x="230.0" y="113.0" width="14.4" height="20.0" fill="#0F766E"/>
<line x1="240.0" y1="123.0" x2="262.5" y2="123.0" stroke="#18181B" stroke-width="1.2"/>
<line x1="240.0" y1="118.0" x2="240.0" y2="128.0" stroke="#18181B" stroke-width="1.2"/>
<line x1="262.5" y1="118.0" x2="262.5" y2="128.0" stroke="#18181B" stroke-width="1.2"/>
<text x="252.4" y="129.0" font-family="Arial, sans-serif" font-size="12" font-weight="700" fill="#18181B" text-anchor="start">0.148</text>
<line x1="242.6" y1="144.0" x2="247.9" y2="144.0" stroke="#52525B" stroke-width="1.2"/>
<line x1="245.1" y1="137.0" x2="245.1" y2="151.0" stroke="#52525B" stroke-width="2.0"/>
<text x="250.1" y="154.0" font-family="Arial, sans-serif" font-size="8" font-weight="700" fill="#52525B" text-anchor="start">duration</text>
<line x1="240.6" y1="152.0" x2="241.9" y2="152.0" stroke="#52525B" stroke-width="1.2"/>
<line x1="241.5" y1="145.0" x2="241.5" y2="159.0" stroke="#52525B" stroke-width="2.0"/>
<text x="246.5" y="162.0" font-family="Arial, sans-serif" font-size="8" font-weight="700" fill="#52525B" text-anchor="start">60s</text>
<line x1="238.5" y1="160.0" x2="242.5" y2="160.0" stroke="#52525B" stroke-width="1.2"/>
<line x1="240.6" y1="153.0" x2="240.6" y2="167.0" stroke="#52525B" stroke-width="2.0"/>
<text x="245.6" y="170.0" font-family="Arial, sans-serif" font-size="8" font-weight="700" fill="#52525B" text-anchor="start">LR8 paired</text>
<text x="38.0" y="185.0" font-family="Arial, sans-serif" font-size="14" font-weight="700" fill="#18181B" text-anchor="start">Shared scalar</text>
<text x="38.0" y="204.0" font-family="Arial, sans-serif" font-size="11" font-weight="400" fill="#52525B" text-anchor="start">min 0.109, median 0.149, max 0.202; LR4 paired 0.236, LR8 paired 0.177, LR4 30s 0.216, LR16 paired 0.0635, LR16 60s 0.0768, interleaved 0.145, fixed ITER 0.14, LR16 fixed 0.117</text>
<rect x="230.0" y="171.0" width="14.4" height="20.0" fill="#D97706"/>
<line x1="240.6" y1="181.0" x2="249.6" y2="181.0" stroke="#18181B" stroke-width="1.2"/>
<line x1="240.6" y1="176.0" x2="240.6" y2="186.0" stroke="#18181B" stroke-width="1.2"/>
<line x1="249.6" y1="176.0" x2="249.6" y2="186.0" stroke="#18181B" stroke-width="1.2"/>
<text x="252.4" y="187.0" font-family="Arial, sans-serif" font-size="12" font-weight="700" fill="#18181B" text-anchor="start">0.149</text>
<line x1="250.6" y1="202.0" x2="258.7" y2="202.0" stroke="#52525B" stroke-width="1.2"/>
<line x1="252.9" y1="195.0" x2="252.9" y2="209.0" stroke="#52525B" stroke-width="2.0"/>
<text x="257.9" y="212.0" font-family="Arial, sans-serif" font-size="8" font-weight="700" fill="#52525B" text-anchor="start">LR4 paired</text>
<line x1="244.5" y1="210.0" x2="247.5" y2="210.0" stroke="#52525B" stroke-width="1.2"/>
<line x1="247.1" y1="203.0" x2="247.1" y2="217.0" stroke="#52525B" stroke-width="2.0"/>
<text x="252.1" y="220.0" font-family="Arial, sans-serif" font-size="8" font-weight="700" fill="#52525B" text-anchor="start">LR8 paired</text>
<line x1="248.4" y1="218.0" x2="252.7" y2="218.0" stroke="#52525B" stroke-width="1.2"/>
<line x1="250.9" y1="211.0" x2="250.9" y2="225.0" stroke="#52525B" stroke-width="2.0"/>
<text x="255.9" y="228.0" font-family="Arial, sans-serif" font-size="8" font-weight="700" fill="#52525B" text-anchor="start">LR4 30s</text>
<line x1="234.4" y1="226.0" x2="240.1" y2="226.0" stroke="#52525B" stroke-width="1.2"/>
<line x1="236.2" y1="219.0" x2="236.2" y2="233.0" stroke="#52525B" stroke-width="2.0"/>
<text x="241.2" y="236.0" font-family="Arial, sans-serif" font-size="8" font-weight="700" fill="#52525B" text-anchor="start">LR16 paired</text>
<line x1="234.1" y1="234.0" x2="240.3" y2="234.0" stroke="#52525B" stroke-width="1.2"/>
<line x1="237.4" y1="227.0" x2="237.4" y2="241.0" stroke="#52525B" stroke-width="2.0"/>
<text x="242.4" y="244.0" font-family="Arial, sans-serif" font-size="8" font-weight="700" fill="#52525B" text-anchor="start">LR16 60s</text>
<line x1="237.5" y1="242.0" x2="248.2" y2="242.0" stroke="#52525B" stroke-width="1.2"/>
<line x1="244.1" y1="235.0" x2="244.1" y2="249.0" stroke="#52525B" stroke-width="2.0"/>
<text x="249.1" y="252.0" font-family="Arial, sans-serif" font-size="8" font-weight="700" fill="#52525B" text-anchor="start">interleaved</text>
<line x1="239.1" y1="250.0" x2="248.7" y2="250.0" stroke="#52525B" stroke-width="1.2"/>
<line x1="243.6" y1="243.0" x2="243.6" y2="257.0" stroke="#52525B" stroke-width="2.0"/>
<text x="248.6" y="260.0" font-family="Arial, sans-serif" font-size="8" font-weight="700" fill="#52525B" text-anchor="start">fixed ITER</text>
<line x1="240.5" y1="258.0" x2="241.8" y2="258.0" stroke="#52525B" stroke-width="1.2"/>
<line x1="241.3" y1="251.0" x2="241.3" y2="265.0" stroke="#52525B" stroke-width="2.0"/>
<text x="246.3" y="268.0" font-family="Arial, sans-serif" font-size="8" font-weight="700" fill="#52525B" text-anchor="start">LR16 fixed</text>
<text x="38.0" y="243.0" font-family="Arial, sans-serif" font-size="14" font-weight="700" fill="#18181B" text-anchor="start">L2 CG hit</text>
<text x="38.0" y="262.0" font-family="Arial, sans-serif" font-size="11" font-weight="400" fill="#52525B" text-anchor="start">min 0.856, median 1.02, max 1.17; targeted 0.978, LR4 paired 1.03, LR8 paired 0.96, LR4 30s 1.3</text>
<rect x="230.0" y="229.0" width="98.5" height="20.0" fill="#2563EB"/>
<line x1="313.0" y1="239.0" x2="342.9" y2="239.0" stroke="#18181B" stroke-width="1.2"/>
<line x1="313.0" y1="234.0" x2="313.0" y2="244.0" stroke="#18181B" stroke-width="1.2"/>
<line x1="342.9" y1="234.0" x2="342.9" y2="244.0" stroke="#18181B" stroke-width="1.2"/>
<text x="336.5" y="245.0" font-family="Arial, sans-serif" font-size="12" font-weight="700" fill="#18181B" text-anchor="start">1.02</text>
<line x1="320.6" y1="260.0" x2="340.4" y2="260.0" stroke="#52525B" stroke-width="1.2"/>
<line x1="324.8" y1="253.0" x2="324.8" y2="267.0" stroke="#52525B" stroke-width="2.0"/>
<text x="329.8" y="270.0" font-family="Arial, sans-serif" font-size="8" font-weight="700" fill="#52525B" text-anchor="start">targeted</text>
<line x1="325.3" y1="268.0" x2="339.4" y2="268.0" stroke="#52525B" stroke-width="1.2"/>
<line x1="329.5" y1="261.0" x2="329.5" y2="275.0" stroke="#52525B" stroke-width="2.0"/>
<text x="334.5" y="278.0" font-family="Arial, sans-serif" font-size="8" font-weight="700" fill="#52525B" text-anchor="start">LR4 paired</text>
<line x1="317.0" y1="276.0" x2="336.5" y2="276.0" stroke="#52525B" stroke-width="1.2"/>
<line x1="323.0" y1="269.0" x2="323.0" y2="283.0" stroke="#52525B" stroke-width="2.0"/>
<text x="328.0" y="286.0" font-family="Arial, sans-serif" font-size="8" font-weight="700" fill="#52525B" text-anchor="start">LR8 paired</text>
<line x1="338.8" y1="284.0" x2="359.6" y2="284.0" stroke="#52525B" stroke-width="1.2"/>
<line x1="355.7" y1="277.0" x2="355.7" y2="291.0" stroke="#52525B" stroke-width="2.0"/>
<text x="360.7" y="294.0" font-family="Arial, sans-serif" font-size="8" font-weight="700" fill="#52525B" text-anchor="start">LR4 30s</text>
<text x="38.0" y="301.0" font-family="Arial, sans-serif" font-size="14" font-weight="700" fill="#18181B" text-anchor="start">DRAM CG stream</text>
<text x="38.0" y="320.0" font-family="Arial, sans-serif" font-size="11" font-weight="400" fill="#52525B" text-anchor="start">min 2.86, median 3.54, max 5.35</text>
<rect x="230.0" y="287.0" width="343.0" height="20.0" fill="#B91C1C"/>
<line x1="506.7" y1="297.0" x2="748.5" y2="297.0" stroke="#18181B" stroke-width="1.2"/>
<line x1="506.7" y1="292.0" x2="506.7" y2="302.0" stroke="#18181B" stroke-width="1.2"/>
<line x1="748.5" y1="292.0" x2="748.5" y2="302.0" stroke="#18181B" stroke-width="1.2"/>
<text x="581.0" y="303.0" font-family="Arial, sans-serif" font-size="12" font-weight="700" fill="#18181B" text-anchor="start">3.54</text>
<text x="38.0" y="396.0" font-family="Arial, sans-serif" font-size="14" font-weight="700" fill="#18181B" text-anchor="start">Tensor MMA incremental</text>
<text x="38.0" y="415.0" font-family="Arial, sans-serif" font-size="11" font-weight="400" fill="#52525B" text-anchor="start">RF16 duration 0.0766; RF8 duration 0.143; fixed-ITER 0.146 pJ/FLOP</text>
<rect x="230.0" y="382.0" width="146.0" height="20.0" fill="#5B5FC7"/>
<line x1="274.1" y1="392.0" x2="468.8" y2="392.0" stroke="#18181B" stroke-width="1.2"/>
<rect x="230.0" y="406.0" width="199.3" height="12.0" fill="#A5B4FC"/>
<line x1="244.2" y1="412.0" x2="589.9" y2="412.0" stroke="#52525B" stroke-width="1.0"/>
<rect x="230.0" y="424.0" width="195.8" height="12.0" fill="#C7D2FE"/>
<line x1="279.1" y1="430.0" x2="516.3" y2="430.0" stroke="#52525B" stroke-width="1.0"/>
<rect x="230.0" y="440.0" width="104.9" height="12.0" fill="#E0E7FF"/>
<line x1="246.7" y1="446.0" x2="415.7" y2="446.0" stroke="#52525B" stroke-width="1.0"/>
<text x="437.3" y="398.0" font-family="Arial, sans-serif" font-size="12" font-weight="700" fill="#18181B" text-anchor="start">0.0766-0.146 pJ/FLOP</text>
<text x="234.0" y="462.0" font-family="Arial, sans-serif" font-size="10" font-weight="400" fill="#52525B" text-anchor="start">dark: RF8/16, mid: fixed-ITER, light: RF8 duration, pale: RF16 duration</text>
<text x="38.0" y="474.0" font-family="Arial, sans-serif" font-size="12" font-weight="400" fill="#52525B" text-anchor="start">Error bars show min-max across valid rows. DRAM is sanity-only; outlined ticks are auxiliary, not replacement values.</text>
</svg>
