<svg xmlns="http://www.w3.org/2000/svg" width="1560" height="690" viewBox="0 0 1560 690">
<title>Live NCU evidence fields</title>
<rect width="100%" height="100%" fill="#FFFFFF"/>
<text x="38.0" y="38.0" font-family="Arial, sans-serif" font-size="22" font-weight="700" fill="#18181B" text-anchor="start">Live NCU evidence fields</text>
<text x="38.0" y="62.0" font-family="Arial, sans-serif" font-size="13" font-weight="400" fill="#52525B" text-anchor="start">RTX 3090 live NCU run, 2026-07-09. Access counts, bytes, shared bytes, long scoreboard, and acceptance/status are shown together.</text>
<text x="38.0" y="86.0" font-family="Arial, sans-serif" font-size="12" font-weight="400" fill="#52525B" text-anchor="start">Bars use log scale because Tensor/control residual traffic and memory-path traffic differ by orders of magnitude.</text>
<text x="38.0" y="108.0" font-family="Arial, sans-serif" font-size="12" font-weight="700" fill="#18181B" text-anchor="start">Mode</text>
<text x="220.0" y="108.0" font-family="Arial, sans-serif" font-size="12" font-weight="700" fill="#18181B" text-anchor="start">Status</text>
<text x="340.0" y="108.0" font-family="Arial, sans-serif" font-size="12" font-weight="700" fill="#18181B" text-anchor="start">L1/L2/DRAM access count</text>
<text x="790.0" y="108.0" font-family="Arial, sans-serif" font-size="12" font-weight="700" fill="#18181B" text-anchor="start">Shared/L1/L2/DRAM bytes</text>
<text x="1300.0" y="108.0" font-family="Arial, sans-serif" font-size="12" font-weight="700" fill="#18181B" text-anchor="start">Long scoreboard</text>
<line x1="30.0" y1="192.0" x2="1525.0" y2="192.0" stroke="#E5E7EB" stroke-width="1.0"/>
<text x="38.0" y="134.0" font-family="Arial, sans-serif" font-size="12" font-weight="700" fill="#18181B" text-anchor="start">reg mma</text>
<text x="38.0" y="152.0" font-family="Arial, sans-serif" font-size="10" font-weight="400" fill="#52525B" text-anchor="start">accepted component row</text>
<rect x="220.0" y="122.0" width="74.0" height="22.0" fill="#0F766E"/>
<text x="257.0" y="137.0" font-family="Arial, sans-serif" font-size="11" font-weight="700" fill="#FFFFFF" text-anchor="middle">pass</text>
<text x="220.0" y="159.0" font-family="Arial, sans-serif" font-size="10" font-weight="700" fill="#0F766E" text-anchor="start">accepted</text>
<text x="332.0" y="131.0" font-family="Arial, sans-serif" font-size="9" font-weight="700" fill="#0F766E" text-anchor="end">L1</text>
<rect x="340.0" y="122.0" width="360.0" height="8.0" fill="#F4F4F5"/>
<rect x="340.0" y="122.0" width="0.0" height="8.0" fill="#0F766E"/>
<text x="708.0" y="131.0" font-family="Arial, sans-serif" font-size="9" font-weight="400" fill="#52525B" text-anchor="start">0</text>
<text x="332.0" y="149.0" font-family="Arial, sans-serif" font-size="9" font-weight="700" fill="#2563EB" text-anchor="end">L2</text>
<rect x="340.0" y="140.0" width="360.0" height="8.0" fill="#F4F4F5"/>
<rect x="340.0" y="140.0" width="192.7" height="8.0" fill="#2563EB"/>
<text x="708.0" y="149.0" font-family="Arial, sans-serif" font-size="9" font-weight="400" fill="#52525B" text-anchor="start">431K</text>
<text x="332.0" y="167.0" font-family="Arial, sans-serif" font-size="9" font-weight="700" fill="#B91C1C" text-anchor="end">DRAM</text>
<rect x="340.0" y="158.0" width="360.0" height="8.0" fill="#F4F4F5"/>
<rect x="340.0" y="158.0" width="216.7" height="8.0" fill="#B91C1C"/>
<text x="708.0" y="167.0" font-family="Arial, sans-serif" font-size="9" font-weight="400" fill="#52525B" text-anchor="start">2.16M</text>
<text x="782.0" y="127.0" font-family="Arial, sans-serif" font-size="9" font-weight="700" fill="#D97706" text-anchor="end">Shared</text>
<rect x="790.0" y="119.0" width="430.0" height="7.0" fill="#F4F4F5"/>
<rect x="790.0" y="119.0" width="0.0" height="7.0" fill="#D97706"/>
<text x="1228.0" y="127.0" font-family="Arial, sans-serif" font-size="9" font-weight="400" fill="#52525B" text-anchor="start">0B</text>
<text x="782.0" y="142.0" font-family="Arial, sans-serif" font-size="9" font-weight="700" fill="#0F766E" text-anchor="end">L1</text>
<rect x="790.0" y="134.0" width="430.0" height="7.0" fill="#F4F4F5"/>
<rect x="790.0" y="134.0" width="0.0" height="7.0" fill="#0F766E"/>
<text x="1228.0" y="142.0" font-family="Arial, sans-serif" font-size="9" font-weight="400" fill="#52525B" text-anchor="start">0B</text>
<text x="782.0" y="157.0" font-family="Arial, sans-serif" font-size="9" font-weight="700" fill="#2563EB" text-anchor="end">L2</text>
<rect x="790.0" y="149.0" width="430.0" height="7.0" fill="#F4F4F5"/>
<rect x="790.0" y="149.0" width="288.8" height="7.0" fill="#2563EB"/>
<text x="1228.0" y="157.0" font-family="Arial, sans-serif" font-size="9" font-weight="400" fill="#52525B" text-anchor="start">120MB</text>
<text x="782.0" y="172.0" font-family="Arial, sans-serif" font-size="9" font-weight="700" fill="#B91C1C" text-anchor="end">DRAM</text>
<rect x="790.0" y="164.0" width="430.0" height="7.0" fill="#F4F4F5"/>
<rect x="790.0" y="164.0" width="284.9" height="7.0" fill="#B91C1C"/>
<text x="1228.0" y="172.0" font-family="Arial, sans-serif" font-size="9" font-weight="400" fill="#52525B" text-anchor="start">93.8MB</text>
<rect x="1300.0" y="123.0" width="180.0" height="12.0" fill="#F4F4F5"/>
<rect x="1300.0" y="123.0" width="-109.4" height="12.0" fill="#71717A"/>
<text x="1488.0" y="134.0" font-family="Arial, sans-serif" font-size="10" font-weight="400" fill="#52525B" text-anchor="start">0.0106%</text>
<text x="1300.0" y="156.0" font-family="Arial, sans-serif" font-size="9" font-weight="400" fill="#52525B" text-anchor="start">all_required_evidence_present</text>
<rect x="28.0" y="192.0" width="1498.0" height="72.0" fill="#FAFAFA"/>
<line x1="30.0" y1="272.0" x2="1525.0" y2="272.0" stroke="#E5E7EB" stroke-width="1.0"/>
<text x="38.0" y="214.0" font-family="Arial, sans-serif" font-size="12" font-weight="700" fill="#18181B" text-anchor="start">reg operand</text>
<text x="38.0" y="232.0" font-family="Arial, sans-serif" font-size="10" font-weight="400" fill="#52525B" text-anchor="start">accepted component row</text>
<rect x="220.0" y="202.0" width="74.0" height="22.0" fill="#0F766E"/>
<text x="257.0" y="217.0" font-family="Arial, sans-serif" font-size="11" font-weight="700" fill="#FFFFFF" text-anchor="middle">pass</text>
<text x="220.0" y="239.0" font-family="Arial, sans-serif" font-size="10" font-weight="700" fill="#0F766E" text-anchor="start">accepted</text>
<text x="332.0" y="211.0" font-family="Arial, sans-serif" font-size="9" font-weight="700" fill="#0F766E" text-anchor="end">L1</text>
<rect x="340.0" y="202.0" width="360.0" height="8.0" fill="#F4F4F5"/>
<rect x="340.0" y="202.0" width="0.0" height="8.0" fill="#0F766E"/>
<text x="708.0" y="211.0" font-family="Arial, sans-serif" font-size="9" font-weight="400" fill="#52525B" text-anchor="start">0</text>
<text x="332.0" y="229.0" font-family="Arial, sans-serif" font-size="9" font-weight="700" fill="#2563EB" text-anchor="end">L2</text>
<rect x="340.0" y="220.0" width="360.0" height="8.0" fill="#F4F4F5"/>
<rect x="340.0" y="220.0" width="192.6" height="8.0" fill="#2563EB"/>
<text x="708.0" y="229.0" font-family="Arial, sans-serif" font-size="9" font-weight="400" fill="#52525B" text-anchor="start">428K</text>
<text x="332.0" y="247.0" font-family="Arial, sans-serif" font-size="9" font-weight="700" fill="#B91C1C" text-anchor="end">DRAM</text>
<rect x="340.0" y="238.0" width="360.0" height="8.0" fill="#F4F4F5"/>
<rect x="340.0" y="238.0" width="216.3" height="8.0" fill="#B91C1C"/>
<text x="708.0" y="247.0" font-family="Arial, sans-serif" font-size="9" font-weight="400" fill="#52525B" text-anchor="start">2.11M</text>
<text x="782.0" y="207.0" font-family="Arial, sans-serif" font-size="9" font-weight="700" fill="#D97706" text-anchor="end">Shared</text>
<rect x="790.0" y="199.0" width="430.0" height="7.0" fill="#F4F4F5"/>
<rect x="790.0" y="199.0" width="0.0" height="7.0" fill="#D97706"/>
<text x="1228.0" y="207.0" font-family="Arial, sans-serif" font-size="9" font-weight="400" fill="#52525B" text-anchor="start">0B</text>
<text x="782.0" y="222.0" font-family="Arial, sans-serif" font-size="9" font-weight="700" fill="#0F766E" text-anchor="end">L1</text>
<rect x="790.0" y="214.0" width="430.0" height="7.0" fill="#F4F4F5"/>
<rect x="790.0" y="214.0" width="0.0" height="7.0" fill="#0F766E"/>
<text x="1228.0" y="222.0" font-family="Arial, sans-serif" font-size="9" font-weight="400" fill="#52525B" text-anchor="start">0B</text>
<text x="782.0" y="237.0" font-family="Arial, sans-serif" font-size="9" font-weight="700" fill="#2563EB" text-anchor="end">L2</text>
<rect x="790.0" y="229.0" width="430.0" height="7.0" fill="#F4F4F5"/>
<rect x="790.0" y="229.0" width="288.9" height="7.0" fill="#2563EB"/>
<text x="1228.0" y="237.0" font-family="Arial, sans-serif" font-size="9" font-weight="400" fill="#52525B" text-anchor="start">121MB</text>
<text x="782.0" y="252.0" font-family="Arial, sans-serif" font-size="9" font-weight="700" fill="#B91C1C" text-anchor="end">DRAM</text>
<rect x="790.0" y="244.0" width="430.0" height="7.0" fill="#F4F4F5"/>
<rect x="790.0" y="244.0" width="284.3" height="7.0" fill="#B91C1C"/>
<text x="1228.0" y="252.0" font-family="Arial, sans-serif" font-size="9" font-weight="400" fill="#52525B" text-anchor="start">90.2MB</text>
<rect x="1300.0" y="203.0" width="180.0" height="12.0" fill="#F4F4F5"/>
<rect x="1300.0" y="203.0" width="-111.5" height="12.0" fill="#71717A"/>
<text x="1488.0" y="214.0" font-family="Arial, sans-serif" font-size="10" font-weight="400" fill="#52525B" text-anchor="start">0.00967%</text>
<text x="1300.0" y="236.0" font-family="Arial, sans-serif" font-size="9" font-weight="400" fill="#52525B" text-anchor="start">all_required_evidence_present</text>
<line x1="30.0" y1="352.0" x2="1525.0" y2="352.0" stroke="#E5E7EB" stroke-width="1.0"/>
<text x="38.0" y="294.0" font-family="Arial, sans-serif" font-size="12" font-weight="700" fill="#18181B" text-anchor="start">shared scalar</text>
<text x="38.0" y="312.0" font-family="Arial, sans-serif" font-size="10" font-weight="400" fill="#52525B" text-anchor="start">accepted component row</text>
<rect x="220.0" y="282.0" width="74.0" height="22.0" fill="#0F766E"/>
<text x="257.0" y="297.0" font-family="Arial, sans-serif" font-size="11" font-weight="700" fill="#FFFFFF" text-anchor="middle">pass</text>
<text x="220.0" y="319.0" font-family="Arial, sans-serif" font-size="10" font-weight="700" fill="#0F766E" text-anchor="start">accepted</text>
<text x="332.0" y="291.0" font-family="Arial, sans-serif" font-size="9" font-weight="700" fill="#0F766E" text-anchor="end">L1</text>
<rect x="340.0" y="282.0" width="360.0" height="8.0" fill="#F4F4F5"/>
<rect x="340.0" y="282.0" width="0.0" height="8.0" fill="#0F766E"/>
<text x="708.0" y="291.0" font-family="Arial, sans-serif" font-size="9" font-weight="400" fill="#52525B" text-anchor="start">0</text>
<text x="332.0" y="309.0" font-family="Arial, sans-serif" font-size="9" font-weight="700" fill="#2563EB" text-anchor="end">L2</text>
<rect x="340.0" y="300.0" width="360.0" height="8.0" fill="#F4F4F5"/>
<rect x="340.0" y="300.0" width="200.4" height="8.0" fill="#2563EB"/>
<text x="708.0" y="309.0" font-family="Arial, sans-serif" font-size="9" font-weight="400" fill="#52525B" text-anchor="start">725K</text>
<text x="332.0" y="327.0" font-family="Arial, sans-serif" font-size="9" font-weight="700" fill="#B91C1C" text-anchor="end">DRAM</text>
<rect x="340.0" y="318.0" width="360.0" height="8.0" fill="#F4F4F5"/>
<rect x="340.0" y="318.0" width="221.7" height="8.0" fill="#B91C1C"/>
<text x="708.0" y="327.0" font-family="Arial, sans-serif" font-size="9" font-weight="400" fill="#52525B" text-anchor="start">3.04M</text>
<text x="782.0" y="287.0" font-family="Arial, sans-serif" font-size="9" font-weight="700" fill="#D97706" text-anchor="end">Shared</text>
<rect x="790.0" y="279.0" width="430.0" height="7.0" fill="#F4F4F5"/>
<rect x="790.0" y="279.0" width="419.2" height="7.0" fill="#D97706"/>
<text x="1228.0" y="287.0" font-family="Arial, sans-serif" font-size="9" font-weight="400" fill="#52525B" text-anchor="start">537GB</text>
<text x="782.0" y="302.0" font-family="Arial, sans-serif" font-size="9" font-weight="700" fill="#0F766E" text-anchor="end">L1</text>
<rect x="790.0" y="294.0" width="430.0" height="7.0" fill="#F4F4F5"/>
<rect x="790.0" y="294.0" width="0.0" height="7.0" fill="#0F766E"/>
<text x="1228.0" y="302.0" font-family="Arial, sans-serif" font-size="9" font-weight="400" fill="#52525B" text-anchor="start">0B</text>
<text x="782.0" y="317.0" font-family="Arial, sans-serif" font-size="9" font-weight="700" fill="#2563EB" text-anchor="end">L2</text>
<rect x="790.0" y="309.0" width="430.0" height="7.0" fill="#F4F4F5"/>
<rect x="790.0" y="309.0" width="292.8" height="7.0" fill="#2563EB"/>
<text x="1228.0" y="317.0" font-family="Arial, sans-serif" font-size="9" font-weight="400" fill="#52525B" text-anchor="start">156MB</text>
<text x="782.0" y="332.0" font-family="Arial, sans-serif" font-size="9" font-weight="700" fill="#B91C1C" text-anchor="end">DRAM</text>
<rect x="790.0" y="324.0" width="430.0" height="7.0" fill="#F4F4F5"/>
<rect x="790.0" y="324.0" width="288.6" height="7.0" fill="#B91C1C"/>
<text x="1228.0" y="332.0" font-family="Arial, sans-serif" font-size="9" font-weight="400" fill="#52525B" text-anchor="start">119MB</text>
<rect x="1300.0" y="283.0" width="180.0" height="12.0" fill="#F4F4F5"/>
<rect x="1300.0" y="283.0" width="-149.8" height="12.0" fill="#71717A"/>
<text x="1488.0" y="294.0" font-family="Arial, sans-serif" font-size="10" font-weight="400" fill="#52525B" text-anchor="start">0.00197%</text>
<text x="1300.0" y="316.0" font-family="Arial, sans-serif" font-size="9" font-weight="400" fill="#52525B" text-anchor="start">all_required_evidence_present</text>
<rect x="28.0" y="352.0" width="1498.0" height="72.0" fill="#FAFAFA"/>
<line x1="30.0" y1="432.0" x2="1525.0" y2="432.0" stroke="#E5E7EB" stroke-width="1.0"/>
<text x="38.0" y="374.0" font-family="Arial, sans-serif" font-size="12" font-weight="700" fill="#18181B" text-anchor="start">global l1</text>
<text x="38.0" y="392.0" font-family="Arial, sans-serif" font-size="10" font-weight="400" fill="#52525B" text-anchor="start">accepted component row</text>
<rect x="220.0" y="362.0" width="74.0" height="22.0" fill="#0F766E"/>
<text x="257.0" y="377.0" font-family="Arial, sans-serif" font-size="11" font-weight="700" fill="#FFFFFF" text-anchor="middle">pass</text>
<text x="220.0" y="399.0" font-family="Arial, sans-serif" font-size="10" font-weight="700" fill="#0F766E" text-anchor="start">accepted</text>
<text x="332.0" y="371.0" font-family="Arial, sans-serif" font-size="9" font-weight="700" fill="#0F766E" text-anchor="end">L1</text>
<rect x="340.0" y="362.0" width="360.0" height="8.0" fill="#F4F4F5"/>
<rect x="340.0" y="362.0" width="360.0" height="8.0" fill="#0F766E"/>
<text x="708.0" y="371.0" font-family="Arial, sans-serif" font-size="9" font-weight="400" fill="#52525B" text-anchor="start">33.6G</text>
<text x="332.0" y="389.0" font-family="Arial, sans-serif" font-size="9" font-weight="700" fill="#2563EB" text-anchor="end">L2</text>
<rect x="340.0" y="380.0" width="360.0" height="8.0" fill="#F4F4F5"/>
<rect x="340.0" y="380.0" width="158.1" height="8.0" fill="#2563EB"/>
<text x="708.0" y="389.0" font-family="Arial, sans-serif" font-size="9" font-weight="400" fill="#52525B" text-anchor="start">42K</text>
<text x="332.0" y="407.0" font-family="Arial, sans-serif" font-size="9" font-weight="700" fill="#B91C1C" text-anchor="end">DRAM</text>
<rect x="340.0" y="398.0" width="360.0" height="8.0" fill="#F4F4F5"/>
<rect x="340.0" y="398.0" width="227.2" height="8.0" fill="#B91C1C"/>
<text x="708.0" y="407.0" font-family="Arial, sans-serif" font-size="9" font-weight="400" fill="#52525B" text-anchor="start">4.39M</text>
<text x="782.0" y="367.0" font-family="Arial, sans-serif" font-size="9" font-weight="700" fill="#D97706" text-anchor="end">Shared</text>
<rect x="790.0" y="359.0" width="430.0" height="7.0" fill="#F4F4F5"/>
<rect x="790.0" y="359.0" width="0.0" height="7.0" fill="#D97706"/>
<text x="1228.0" y="367.0" font-family="Arial, sans-serif" font-size="9" font-weight="400" fill="#52525B" text-anchor="start">0B</text>
<text x="782.0" y="382.0" font-family="Arial, sans-serif" font-size="9" font-weight="700" fill="#0F766E" text-anchor="end">L1</text>
<rect x="790.0" y="374.0" width="430.0" height="7.0" fill="#F4F4F5"/>
<rect x="790.0" y="374.0" width="430.0" height="7.0" fill="#0F766E"/>
<text x="1228.0" y="382.0" font-family="Arial, sans-serif" font-size="9" font-weight="400" fill="#52525B" text-anchor="start">1.07TB</text>
<text x="782.0" y="397.0" font-family="Arial, sans-serif" font-size="9" font-weight="700" fill="#2563EB" text-anchor="end">L2</text>
<rect x="790.0" y="389.0" width="430.0" height="7.0" fill="#F4F4F5"/>
<rect x="790.0" y="389.0" width="295.0" height="7.0" fill="#2563EB"/>
<text x="1228.0" y="397.0" font-family="Arial, sans-serif" font-size="9" font-weight="400" fill="#52525B" text-anchor="start">179MB</text>
<text x="782.0" y="412.0" font-family="Arial, sans-serif" font-size="9" font-weight="700" fill="#B91C1C" text-anchor="end">DRAM</text>
<rect x="790.0" y="404.0" width="430.0" height="7.0" fill="#F4F4F5"/>
<rect x="790.0" y="404.0" width="291.2" height="7.0" fill="#B91C1C"/>
<text x="1228.0" y="412.0" font-family="Arial, sans-serif" font-size="9" font-weight="400" fill="#52525B" text-anchor="start">140MB</text>
<rect x="1300.0" y="363.0" width="180.0" height="12.0" fill="#F4F4F5"/>
<rect x="1300.0" y="363.0" width="68.7" height="12.0" fill="#71717A"/>
<text x="1488.0" y="374.0" font-family="Arial, sans-serif" font-size="10" font-weight="400" fill="#52525B" text-anchor="start">17.4%</text>
<text x="1300.0" y="396.0" font-family="Arial, sans-serif" font-size="9" font-weight="400" fill="#52525B" text-anchor="start">all_required_evidence_present</text>
<line x1="30.0" y1="512.0" x2="1525.0" y2="512.0" stroke="#E5E7EB" stroke-width="1.0"/>
<text x="38.0" y="454.0" font-family="Arial, sans-serif" font-size="12" font-weight="700" fill="#18181B" text-anchor="start">l2 cg</text>
<text x="38.0" y="472.0" font-family="Arial, sans-serif" font-size="10" font-weight="400" fill="#52525B" text-anchor="start">accepted component row</text>
<rect x="220.0" y="442.0" width="74.0" height="22.0" fill="#0F766E"/>
<text x="257.0" y="457.0" font-family="Arial, sans-serif" font-size="11" font-weight="700" fill="#FFFFFF" text-anchor="middle">pass</text>
<text x="220.0" y="479.0" font-family="Arial, sans-serif" font-size="10" font-weight="700" fill="#0F766E" text-anchor="start">accepted</text>
<text x="332.0" y="451.0" font-family="Arial, sans-serif" font-size="9" font-weight="700" fill="#0F766E" text-anchor="end">L1</text>
<rect x="340.0" y="442.0" width="360.0" height="8.0" fill="#F4F4F5"/>
<rect x="340.0" y="442.0" width="349.7" height="8.0" fill="#0F766E"/>
<text x="708.0" y="451.0" font-family="Arial, sans-serif" font-size="9" font-weight="400" fill="#52525B" text-anchor="start">16.8G</text>
<text x="332.0" y="469.0" font-family="Arial, sans-serif" font-size="9" font-weight="700" fill="#2563EB" text-anchor="end">L2</text>
<rect x="340.0" y="460.0" width="360.0" height="8.0" fill="#F4F4F5"/>
<rect x="340.0" y="460.0" width="349.7" height="8.0" fill="#2563EB"/>
<text x="708.0" y="469.0" font-family="Arial, sans-serif" font-size="9" font-weight="400" fill="#52525B" text-anchor="start">16.8G</text>
<text x="332.0" y="487.0" font-family="Arial, sans-serif" font-size="9" font-weight="700" fill="#B91C1C" text-anchor="end">DRAM</text>
<rect x="340.0" y="478.0" width="360.0" height="8.0" fill="#F4F4F5"/>
<rect x="340.0" y="478.0" width="244.4" height="8.0" fill="#B91C1C"/>
<text x="708.0" y="487.0" font-family="Arial, sans-serif" font-size="9" font-weight="400" fill="#52525B" text-anchor="start">14M</text>
<text x="782.0" y="447.0" font-family="Arial, sans-serif" font-size="9" font-weight="700" fill="#D97706" text-anchor="end">Shared</text>
<rect x="790.0" y="439.0" width="430.0" height="7.0" fill="#F4F4F5"/>
<rect x="790.0" y="439.0" width="0.0" height="7.0" fill="#D97706"/>
<text x="1228.0" y="447.0" font-family="Arial, sans-serif" font-size="9" font-weight="400" fill="#52525B" text-anchor="start">0B</text>
<text x="782.0" y="462.0" font-family="Arial, sans-serif" font-size="9" font-weight="700" fill="#0F766E" text-anchor="end">L1</text>
<rect x="790.0" y="454.0" width="430.0" height="7.0" fill="#F4F4F5"/>
<rect x="790.0" y="454.0" width="419.2" height="7.0" fill="#0F766E"/>
<text x="1228.0" y="462.0" font-family="Arial, sans-serif" font-size="9" font-weight="400" fill="#52525B" text-anchor="start">537GB</text>
<text x="782.0" y="477.0" font-family="Arial, sans-serif" font-size="9" font-weight="700" fill="#2563EB" text-anchor="end">L2</text>
<rect x="790.0" y="469.0" width="430.0" height="7.0" fill="#F4F4F5"/>
<rect x="790.0" y="469.0" width="419.3" height="7.0" fill="#2563EB"/>
<text x="1228.0" y="477.0" font-family="Arial, sans-serif" font-size="9" font-weight="400" fill="#52525B" text-anchor="start">538GB</text>
<text x="782.0" y="492.0" font-family="Arial, sans-serif" font-size="9" font-weight="700" fill="#B91C1C" text-anchor="end">DRAM</text>
<rect x="790.0" y="484.0" width="430.0" height="7.0" fill="#F4F4F5"/>
<rect x="790.0" y="484.0" width="316.6" height="7.0" fill="#B91C1C"/>
<text x="1228.0" y="492.0" font-family="Arial, sans-serif" font-size="9" font-weight="400" fill="#52525B" text-anchor="start">720MB</text>
<rect x="1300.0" y="443.0" width="180.0" height="12.0" fill="#F4F4F5"/>
<rect x="1300.0" y="443.0" width="162.6" height="12.0" fill="#71717A"/>
<text x="1488.0" y="454.0" font-family="Arial, sans-serif" font-size="10" font-weight="400" fill="#52525B" text-anchor="start">864.9700%</text>
<text x="1300.0" y="476.0" font-family="Arial, sans-serif" font-size="9" font-weight="400" fill="#52525B" text-anchor="start">all_required_evidence_present</text>
<rect x="28.0" y="512.0" width="1498.0" height="72.0" fill="#FAFAFA"/>
<line x1="30.0" y1="592.0" x2="1525.0" y2="592.0" stroke="#E5E7EB" stroke-width="1.0"/>
<text x="38.0" y="534.0" font-family="Arial, sans-serif" font-size="12" font-weight="700" fill="#18181B" text-anchor="start">dram cg</text>
<text x="38.0" y="552.0" font-family="Arial, sans-serif" font-size="10" font-weight="400" fill="#52525B" text-anchor="start">accepted component row</text>
<rect x="220.0" y="522.0" width="74.0" height="22.0" fill="#0F766E"/>
<text x="257.0" y="537.0" font-family="Arial, sans-serif" font-size="11" font-weight="700" fill="#FFFFFF" text-anchor="middle">pass</text>
<text x="220.0" y="559.0" font-family="Arial, sans-serif" font-size="10" font-weight="700" fill="#0F766E" text-anchor="start">accepted</text>
<text x="332.0" y="531.0" font-family="Arial, sans-serif" font-size="9" font-weight="700" fill="#0F766E" text-anchor="end">L1</text>
<rect x="340.0" y="522.0" width="360.0" height="8.0" fill="#F4F4F5"/>
<rect x="340.0" y="522.0" width="349.7" height="8.0" fill="#0F766E"/>
<text x="708.0" y="531.0" font-family="Arial, sans-serif" font-size="9" font-weight="400" fill="#52525B" text-anchor="start">16.8G</text>
<text x="332.0" y="549.0" font-family="Arial, sans-serif" font-size="9" font-weight="700" fill="#2563EB" text-anchor="end">L2</text>
<rect x="340.0" y="540.0" width="360.0" height="8.0" fill="#F4F4F5"/>
<rect x="340.0" y="540.0" width="349.7" height="8.0" fill="#2563EB"/>
<text x="708.0" y="549.0" font-family="Arial, sans-serif" font-size="9" font-weight="400" fill="#52525B" text-anchor="start">16.8G</text>
<text x="332.0" y="567.0" font-family="Arial, sans-serif" font-size="9" font-weight="700" fill="#B91C1C" text-anchor="end">DRAM</text>
<rect x="340.0" y="558.0" width="360.0" height="8.0" fill="#F4F4F5"/>
<rect x="340.0" y="558.0" width="349.7" height="8.0" fill="#B91C1C"/>
<text x="708.0" y="567.0" font-family="Arial, sans-serif" font-size="9" font-weight="400" fill="#52525B" text-anchor="start">16.8G</text>
<text x="782.0" y="527.0" font-family="Arial, sans-serif" font-size="9" font-weight="700" fill="#D97706" text-anchor="end">Shared</text>
<rect x="790.0" y="519.0" width="430.0" height="7.0" fill="#F4F4F5"/>
<rect x="790.0" y="519.0" width="0.0" height="7.0" fill="#D97706"/>
<text x="1228.0" y="527.0" font-family="Arial, sans-serif" font-size="9" font-weight="400" fill="#52525B" text-anchor="start">0B</text>
<text x="782.0" y="542.0" font-family="Arial, sans-serif" font-size="9" font-weight="700" fill="#0F766E" text-anchor="end">L1</text>
<rect x="790.0" y="534.0" width="430.0" height="7.0" fill="#F4F4F5"/>
<rect x="790.0" y="534.0" width="419.2" height="7.0" fill="#0F766E"/>
<text x="1228.0" y="542.0" font-family="Arial, sans-serif" font-size="9" font-weight="400" fill="#52525B" text-anchor="start">537GB</text>
<text x="782.0" y="557.0" font-family="Arial, sans-serif" font-size="9" font-weight="700" fill="#2563EB" text-anchor="end">L2</text>
<rect x="790.0" y="549.0" width="430.0" height="7.0" fill="#F4F4F5"/>
<rect x="790.0" y="549.0" width="419.3" height="7.0" fill="#2563EB"/>
<text x="1228.0" y="557.0" font-family="Arial, sans-serif" font-size="9" font-weight="400" fill="#52525B" text-anchor="start">539GB</text>
<text x="782.0" y="572.0" font-family="Arial, sans-serif" font-size="9" font-weight="700" fill="#B91C1C" text-anchor="end">DRAM</text>
<rect x="790.0" y="564.0" width="430.0" height="7.0" fill="#F4F4F5"/>
<rect x="790.0" y="564.0" width="419.3" height="7.0" fill="#B91C1C"/>
<text x="1228.0" y="572.0" font-family="Arial, sans-serif" font-size="9" font-weight="400" fill="#52525B" text-anchor="start">538GB</text>
<rect x="1300.0" y="523.0" width="180.0" height="12.0" fill="#F4F4F5"/>
<rect x="1300.0" y="523.0" width="180.0" height="12.0" fill="#71717A"/>
<text x="1488.0" y="534.0" font-family="Arial, sans-serif" font-size="10" font-weight="400" fill="#52525B" text-anchor="start">1784.0800%</text>
<text x="1300.0" y="556.0" font-family="Arial, sans-serif" font-size="9" font-weight="400" fill="#52525B" text-anchor="start">all_required_evidence_present</text>
<rect x="38.0" y="630.0" width="16.0" height="9.0" fill="#D97706"/>
<text x="60.0" y="638.0" font-family="Arial, sans-serif" font-size="11" font-weight="400" fill="#18181B" text-anchor="start">Shared</text>
<rect x="143.0" y="630.0" width="16.0" height="9.0" fill="#0F766E"/>
<text x="165.0" y="638.0" font-family="Arial, sans-serif" font-size="11" font-weight="400" fill="#18181B" text-anchor="start">L1</text>
<rect x="248.0" y="630.0" width="16.0" height="9.0" fill="#2563EB"/>
<text x="270.0" y="638.0" font-family="Arial, sans-serif" font-size="11" font-weight="400" fill="#18181B" text-anchor="start">L2</text>
<rect x="353.0" y="630.0" width="16.0" height="9.0" fill="#B91C1C"/>
<text x="375.0" y="638.0" font-family="Arial, sans-serif" font-size="11" font-weight="400" fill="#18181B" text-anchor="start">DRAM</text>
<rect x="458.0" y="630.0" width="16.0" height="9.0" fill="#0F766E"/>
<text x="480.0" y="638.0" font-family="Arial, sans-serif" font-size="11" font-weight="400" fill="#18181B" text-anchor="start">status/pass</text>
<text x="38.0" y="672.0" font-family="Arial, sans-serif" font-size="12" font-weight="400" fill="#52525B" text-anchor="start">This is an evidence visualization, not an energy coefficient plot. It confirms whether NCU filled the required path counters used by the report table.</text>
</svg>
