<?xml version="1.0" encoding="utf-8" standalone="no"?>
<!DOCTYPE svg PUBLIC "-//W3C//DTD SVG 1.1//EN"
  "http://www.w3.org/Graphics/SVG/1.1/DTD/svg11.dtd">
<svg xmlns:xlink="http://www.w3.org/1999/xlink" width="574.2145pt" height="445.967781pt" viewBox="0 0 574.2145 445.967781" xmlns="http://www.w3.org/2000/svg" version="1.1">
 <metadata>
  <rdf:RDF xmlns:dc="http://purl.org/dc/elements/1.1/" xmlns:cc="http://creativecommons.org/ns#" xmlns:rdf="http://www.w3.org/1999/02/22-rdf-syntax-ns#">
   <cc:Work>
    <dc:type rdf:resource="http://purl.org/dc/dcmitype/StillImage"/>
    <dc:date>2026-07-22T10:26:20.943942</dc:date>
    <dc:format>image/svg+xml</dc:format>
    <dc:creator>
     <cc:Agent>
      <dc:title>Matplotlib v3.10.5, https://matplotlib.org/</dc:title>
     </cc:Agent>
    </dc:creator>
   </cc:Work>
  </rdf:RDF>
 </metadata>
 <defs>
  <style type="text/css">*{stroke-linejoin: round; stroke-linecap: butt}</style>
 </defs>
 <g id="figure_1">
  <g id="patch_1">
   <path d="M 0 445.967781
L 574.2145 445.967781
L 574.2145 0
L 0 0
z
" style="fill: #ffffff"/>
  </g>
  <g id="axes_1">
   <g id="patch_2">
    <path d="M 72.847562 313.576
L 395.351562 313.576
L 395.351562 84.048
L 72.847562 84.048
z
" style="fill: #ffffff"/>
   </g>
   <g id="matplotlib.axis_1">
    <g id="xtick_1">
     <g id="line2d_1">
      <path d="M 87.506835 313.576
L 87.506835 84.048
" clip-path="url(#p71127d839e)" style="fill: none; stroke: #d5dee2; stroke-width: 0.8; stroke-linecap: square"/>
     </g>
     <g id="line2d_2">
      <defs>
       <path id="m964a10bad8" d="M 0 0
L 0 3.5
" style="stroke: #667784; stroke-width: 0.8"/>
      </defs>
      <g>
       <use xlink:href="#m964a10bad8" x="87.506835" y="313.576" style="fill: #667784; stroke: #667784; stroke-width: 0.8"/>
      </g>
     </g>
     <g id="text_1">
      <text style="font-size: 10px; font-family: 'DejaVu Sans'; text-anchor: middle; fill: #667784" x="87.506835" y="328.174437" transform="rotate(-0 87.506835 328.174437)">1</text>
     </g>
    </g>
    <g id="xtick_2">
     <g id="line2d_3">
      <path d="M 146.143926 313.576
L 146.143926 84.048
" clip-path="url(#p71127d839e)" style="fill: none; stroke: #d5dee2; stroke-width: 0.8; stroke-linecap: square"/>
     </g>
     <g id="line2d_4">
      <g>
       <use xlink:href="#m964a10bad8" x="146.143926" y="313.576" style="fill: #667784; stroke: #667784; stroke-width: 0.8"/>
      </g>
     </g>
     <g id="text_2">
      <text style="font-size: 10px; font-family: 'DejaVu Sans'; text-anchor: middle; fill: #667784" x="146.143926" y="328.174437" transform="rotate(-0 146.143926 328.174437)">4</text>
     </g>
    </g>
    <g id="xtick_3">
     <g id="line2d_5">
      <path d="M 380.69229 313.576
L 380.69229 84.048
" clip-path="url(#p71127d839e)" style="fill: none; stroke: #d5dee2; stroke-width: 0.8; stroke-linecap: square"/>
     </g>
     <g id="line2d_6">
      <g>
       <use xlink:href="#m964a10bad8" x="380.69229" y="313.576" style="fill: #667784; stroke: #667784; stroke-width: 0.8"/>
      </g>
     </g>
     <g id="text_3">
      <text style="font-size: 10px; font-family: 'DejaVu Sans'; text-anchor: middle; fill: #667784" x="380.69229" y="328.174437" transform="rotate(-0 380.69229 328.174437)">16</text>
     </g>
    </g>
    <g id="text_4">
     <text style="font-size: 10px; font-family: 'DejaVu Sans'; text-anchor: middle; fill: #172a3a" x="234.099562" y="341.852562" transform="rotate(-0 234.099562 341.852562)">Reuse factor [count]</text>
    </g>
   </g>
   <g id="matplotlib.axis_2">
    <g id="ytick_1">
     <g id="line2d_7">
      <path d="M 72.847562 306.381884
L 395.351562 306.381884
" clip-path="url(#p71127d839e)" style="fill: none; stroke: #d5dee2; stroke-width: 0.8; stroke-linecap: square"/>
     </g>
     <g id="line2d_8">
      <defs>
       <path id="m8c2b782cf8" d="M 0 0
L -3.5 0
" style="stroke: #667784; stroke-width: 0.8"/>
      </defs>
      <g>
       <use xlink:href="#m8c2b782cf8" x="72.847562" y="306.381884" style="fill: #667784; stroke: #667784; stroke-width: 0.8"/>
      </g>
     </g>
     <g id="text_5">
      <text style="font-size: 10px; font-family: 'DejaVu Sans'; text-anchor: end; fill: #667784" x="65.847562" y="310.181103" transform="rotate(-0 65.847562 310.181103)">0.0</text>
     </g>
    </g>
    <g id="ytick_2">
     <g id="line2d_9">
      <path d="M 72.847562 271.987406
L 395.351562 271.987406
" clip-path="url(#p71127d839e)" style="fill: none; stroke: #d5dee2; stroke-width: 0.8; stroke-linecap: square"/>
     </g>
     <g id="line2d_10">
      <g>
       <use xlink:href="#m8c2b782cf8" x="72.847562" y="271.987406" style="fill: #667784; stroke: #667784; stroke-width: 0.8"/>
      </g>
     </g>
     <g id="text_6">
      <text style="font-size: 10px; font-family: 'DejaVu Sans'; text-anchor: end; fill: #667784" x="65.847562" y="275.786625" transform="rotate(-0 65.847562 275.786625)">0.5</text>
     </g>
    </g>
    <g id="ytick_3">
     <g id="line2d_11">
      <path d="M 72.847562 237.592928
L 395.351562 237.592928
" clip-path="url(#p71127d839e)" style="fill: none; stroke: #d5dee2; stroke-width: 0.8; stroke-linecap: square"/>
     </g>
     <g id="line2d_12">
      <g>
       <use xlink:href="#m8c2b782cf8" x="72.847562" y="237.592928" style="fill: #667784; stroke: #667784; stroke-width: 0.8"/>
      </g>
     </g>
     <g id="text_7">
      <text style="font-size: 10px; font-family: 'DejaVu Sans'; text-anchor: end; fill: #667784" x="65.847562" y="241.392146" transform="rotate(-0 65.847562 241.392146)">1.0</text>
     </g>
    </g>
    <g id="ytick_4">
     <g id="line2d_13">
      <path d="M 72.847562 203.198449
L 395.351562 203.198449
" clip-path="url(#p71127d839e)" style="fill: none; stroke: #d5dee2; stroke-width: 0.8; stroke-linecap: square"/>
     </g>
     <g id="line2d_14">
      <g>
       <use xlink:href="#m8c2b782cf8" x="72.847562" y="203.198449" style="fill: #667784; stroke: #667784; stroke-width: 0.8"/>
      </g>
     </g>
     <g id="text_8">
      <text style="font-size: 10px; font-family: 'DejaVu Sans'; text-anchor: end; fill: #667784" x="65.847562" y="206.997668" transform="rotate(-0 65.847562 206.997668)">1.5</text>
     </g>
    </g>
    <g id="ytick_5">
     <g id="line2d_15">
      <path d="M 72.847562 168.803971
L 395.351562 168.803971
" clip-path="url(#p71127d839e)" style="fill: none; stroke: #d5dee2; stroke-width: 0.8; stroke-linecap: square"/>
     </g>
     <g id="line2d_16">
      <g>
       <use xlink:href="#m8c2b782cf8" x="72.847562" y="168.803971" style="fill: #667784; stroke: #667784; stroke-width: 0.8"/>
      </g>
     </g>
     <g id="text_9">
      <text style="font-size: 10px; font-family: 'DejaVu Sans'; text-anchor: end; fill: #667784" x="65.847562" y="172.60319" transform="rotate(-0 65.847562 172.60319)">2.0</text>
     </g>
    </g>
    <g id="ytick_6">
     <g id="line2d_17">
      <path d="M 72.847562 134.409493
L 395.351562 134.409493
" clip-path="url(#p71127d839e)" style="fill: none; stroke: #d5dee2; stroke-width: 0.8; stroke-linecap: square"/>
     </g>
     <g id="line2d_18">
      <g>
       <use xlink:href="#m8c2b782cf8" x="72.847562" y="134.409493" style="fill: #667784; stroke: #667784; stroke-width: 0.8"/>
      </g>
     </g>
     <g id="text_10">
      <text style="font-size: 10px; font-family: 'DejaVu Sans'; text-anchor: end; fill: #667784" x="65.847562" y="138.208712" transform="rotate(-0 65.847562 138.208712)">2.5</text>
     </g>
    </g>
    <g id="ytick_7">
     <g id="line2d_19">
      <path d="M 72.847562 100.015015
L 395.351562 100.015015
" clip-path="url(#p71127d839e)" style="fill: none; stroke: #d5dee2; stroke-width: 0.8; stroke-linecap: square"/>
     </g>
     <g id="line2d_20">
      <g>
       <use xlink:href="#m8c2b782cf8" x="72.847562" y="100.015015" style="fill: #667784; stroke: #667784; stroke-width: 0.8"/>
      </g>
     </g>
     <g id="text_11">
      <text style="font-size: 10px; font-family: 'DejaVu Sans'; text-anchor: end; fill: #667784" x="65.847562" y="103.814233" transform="rotate(-0 65.847562 103.814233)">3.0</text>
     </g>
    </g>
    <g id="text_12">
     <text style="font-size: 10px; font-family: 'DejaVu Sans'; text-anchor: middle; fill: #172a3a" x="43.86475" y="198.812" transform="rotate(-90 43.86475 198.812)">pJ/FLOP</text>
    </g>
   </g>
   <g id="line2d_21">
    <path d="M 87.506835 120.691775
L 146.143926 94.481091
L 380.69229 101.576483
" clip-path="url(#p71127d839e)" style="fill: none; stroke: #2e6f9e; stroke-width: 2; stroke-linecap: square"/>
    <defs>
     <path id="m66e521a414" d="M 0 3
C 0.795609 3 1.55874 2.683901 2.12132 2.12132
C 2.683901 1.55874 3 0.795609 3 0
C 3 -0.795609 2.683901 -1.55874 2.12132 -2.12132
C 1.55874 -2.683901 0.795609 -3 0 -3
C -0.795609 -3 -1.55874 -2.683901 -2.12132 -2.12132
C -2.683901 -1.55874 -3 -0.795609 -3 0
C -3 0.795609 -2.683901 1.55874 -2.12132 2.12132
C -1.55874 2.683901 -0.795609 3 0 3
z
" style="stroke: #2e6f9e"/>
    </defs>
    <g clip-path="url(#p71127d839e)">
     <use xlink:href="#m66e521a414" x="87.506835" y="120.691775" style="fill: #2e6f9e; stroke: #2e6f9e"/>
     <use xlink:href="#m66e521a414" x="146.143926" y="94.481091" style="fill: #2e6f9e; stroke: #2e6f9e"/>
     <use xlink:href="#m66e521a414" x="380.69229" y="101.576483" style="fill: #2e6f9e; stroke: #2e6f9e"/>
    </g>
   </g>
   <g id="line2d_22">
    <path d="M 87.506835 247.413637
L 146.143926 227.225071
L 380.69229 240.989983
" clip-path="url(#p71127d839e)" style="fill: none; stroke-dasharray: 5.92,2.56; stroke-dashoffset: 0; stroke: #2e6f9e; stroke-width: 1.6"/>
    <defs>
     <path id="m67e92e33f0" d="M 0 -3
L -3 3
L 3 3
z
" style="stroke: #2e6f9e; stroke-linejoin: miter"/>
    </defs>
    <g clip-path="url(#p71127d839e)">
     <use xlink:href="#m67e92e33f0" x="87.506835" y="247.413637" style="fill: #2e6f9e; stroke: #2e6f9e; stroke-linejoin: miter"/>
     <use xlink:href="#m67e92e33f0" x="146.143926" y="227.225071" style="fill: #2e6f9e; stroke: #2e6f9e; stroke-linejoin: miter"/>
     <use xlink:href="#m67e92e33f0" x="380.69229" y="240.989983" style="fill: #2e6f9e; stroke: #2e6f9e; stroke-linejoin: miter"/>
    </g>
   </g>
   <g id="line2d_23">
    <path d="M 87.506835 249.822623
L 146.143926 236.702688
L 380.69229 244.664133
" clip-path="url(#p71127d839e)" style="fill: none; stroke-dasharray: 1.4,2.31; stroke-dashoffset: 0; stroke: #2e6f9e; stroke-width: 1.4"/>
    <defs>
     <path id="m20892126c4" d="M -3 3
L 3 3
L 3 -3
L -3 -3
z
" style="stroke: #2e6f9e; stroke-linejoin: miter"/>
    </defs>
    <g clip-path="url(#p71127d839e)">
     <use xlink:href="#m20892126c4" x="87.506835" y="249.822623" style="fill: #2e6f9e; stroke: #2e6f9e; stroke-linejoin: miter"/>
     <use xlink:href="#m20892126c4" x="146.143926" y="236.702688" style="fill: #2e6f9e; stroke: #2e6f9e; stroke-linejoin: miter"/>
     <use xlink:href="#m20892126c4" x="380.69229" y="244.664133" style="fill: #2e6f9e; stroke: #2e6f9e; stroke-linejoin: miter"/>
    </g>
   </g>
   <g id="line2d_24">
    <path d="M 87.506835 147.468346
L 146.143926 138.14945
L 380.69229 135.704592
" clip-path="url(#p71127d839e)" style="fill: none; stroke: #3a7d5d; stroke-width: 2; stroke-linecap: square"/>
    <defs>
     <path id="ma5714d6a83" d="M 0 3
C 0.795609 3 1.55874 2.683901 2.12132 2.12132
C 2.683901 1.55874 3 0.795609 3 0
C 3 -0.795609 2.683901 -1.55874 2.12132 -2.12132
C 1.55874 -2.683901 0.795609 -3 0 -3
C -0.795609 -3 -1.55874 -2.683901 -2.12132 -2.12132
C -2.683901 -1.55874 -3 -0.795609 -3 0
C -3 0.795609 -2.683901 1.55874 -2.12132 2.12132
C -1.55874 2.683901 -0.795609 3 0 3
z
" style="stroke: #3a7d5d"/>
    </defs>
    <g clip-path="url(#p71127d839e)">
     <use xlink:href="#ma5714d6a83" x="87.506835" y="147.468346" style="fill: #3a7d5d; stroke: #3a7d5d"/>
     <use xlink:href="#ma5714d6a83" x="146.143926" y="138.14945" style="fill: #3a7d5d; stroke: #3a7d5d"/>
     <use xlink:href="#ma5714d6a83" x="380.69229" y="135.704592" style="fill: #3a7d5d; stroke: #3a7d5d"/>
    </g>
   </g>
   <g id="line2d_25">
    <path d="M 87.506835 255.389902
L 146.143926 226.472184
L 380.69229 229.394262
" clip-path="url(#p71127d839e)" style="fill: none; stroke-dasharray: 5.92,2.56; stroke-dashoffset: 0; stroke: #3a7d5d; stroke-width: 1.6"/>
    <defs>
     <path id="md8e792fe8b" d="M 0 -3
L -3 3
L 3 3
z
" style="stroke: #3a7d5d; stroke-linejoin: miter"/>
    </defs>
    <g clip-path="url(#p71127d839e)">
     <use xlink:href="#md8e792fe8b" x="87.506835" y="255.389902" style="fill: #3a7d5d; stroke: #3a7d5d; stroke-linejoin: miter"/>
     <use xlink:href="#md8e792fe8b" x="146.143926" y="226.472184" style="fill: #3a7d5d; stroke: #3a7d5d; stroke-linejoin: miter"/>
     <use xlink:href="#md8e792fe8b" x="380.69229" y="229.394262" style="fill: #3a7d5d; stroke: #3a7d5d; stroke-linejoin: miter"/>
    </g>
   </g>
   <g id="line2d_26">
    <path d="M 87.506835 241.699892
L 146.143926 225.976115
L 380.69229 224.670904
" clip-path="url(#p71127d839e)" style="fill: none; stroke-dasharray: 1.4,2.31; stroke-dashoffset: 0; stroke: #3a7d5d; stroke-width: 1.4"/>
    <defs>
     <path id="m24a8c74632" d="M -3 3
L 3 3
L 3 -3
L -3 -3
z
" style="stroke: #3a7d5d; stroke-linejoin: miter"/>
    </defs>
    <g clip-path="url(#p71127d839e)">
     <use xlink:href="#m24a8c74632" x="87.506835" y="241.699892" style="fill: #3a7d5d; stroke: #3a7d5d; stroke-linejoin: miter"/>
     <use xlink:href="#m24a8c74632" x="146.143926" y="225.976115" style="fill: #3a7d5d; stroke: #3a7d5d; stroke-linejoin: miter"/>
     <use xlink:href="#m24a8c74632" x="380.69229" y="224.670904" style="fill: #3a7d5d; stroke: #3a7d5d; stroke-linejoin: miter"/>
    </g>
   </g>
   <g id="line2d_27">
    <path d="M 87.506835 120.143611
L 146.143926 104.835208
L 380.69229 103.644574
" clip-path="url(#p71127d839e)" style="fill: none; stroke: #d06f2b; stroke-width: 2; stroke-linecap: square"/>
    <defs>
     <path id="me7894ca8bf" d="M 0 3
C 0.795609 3 1.55874 2.683901 2.12132 2.12132
C 2.683901 1.55874 3 0.795609 3 0
C 3 -0.795609 2.683901 -1.55874 2.12132 -2.12132
C 1.55874 -2.683901 0.795609 -3 0 -3
C -0.795609 -3 -1.55874 -2.683901 -2.12132 -2.12132
C -2.683901 -1.55874 -3 -0.795609 -3 0
C -3 0.795609 -2.683901 1.55874 -2.12132 2.12132
C -1.55874 2.683901 -0.795609 3 0 3
z
" style="stroke: #d06f2b"/>
    </defs>
    <g clip-path="url(#p71127d839e)">
     <use xlink:href="#me7894ca8bf" x="87.506835" y="120.143611" style="fill: #d06f2b; stroke: #d06f2b"/>
     <use xlink:href="#me7894ca8bf" x="146.143926" y="104.835208" style="fill: #d06f2b; stroke: #d06f2b"/>
     <use xlink:href="#me7894ca8bf" x="380.69229" y="103.644574" style="fill: #d06f2b; stroke: #d06f2b"/>
    </g>
   </g>
   <g id="line2d_28">
    <path d="M 87.506835 303.142909
L 146.143926 286.380034
L 380.69229 283.574806
" clip-path="url(#p71127d839e)" style="fill: none; stroke-dasharray: 5.92,2.56; stroke-dashoffset: 0; stroke: #d06f2b; stroke-width: 1.6"/>
    <defs>
     <path id="meb693c0add" d="M 0 -3
L -3 3
L 3 3
z
" style="stroke: #d06f2b; stroke-linejoin: miter"/>
    </defs>
    <g clip-path="url(#p71127d839e)">
     <use xlink:href="#meb693c0add" x="87.506835" y="303.142909" style="fill: #d06f2b; stroke: #d06f2b; stroke-linejoin: miter"/>
     <use xlink:href="#meb693c0add" x="146.143926" y="286.380034" style="fill: #d06f2b; stroke: #d06f2b; stroke-linejoin: miter"/>
     <use xlink:href="#meb693c0add" x="380.69229" y="283.574806" style="fill: #d06f2b; stroke: #d06f2b; stroke-linejoin: miter"/>
    </g>
   </g>
   <g id="line2d_29">
    <path d="M 87.506835 260.146931
L 146.143926 258.988563
L 380.69229 261.979415
" clip-path="url(#p71127d839e)" style="fill: none; stroke-dasharray: 1.4,2.31; stroke-dashoffset: 0; stroke: #d06f2b; stroke-width: 1.4"/>
    <defs>
     <path id="mdc1cfc3019" d="M -3 3
L 3 3
L 3 -3
L -3 -3
z
" style="stroke: #d06f2b; stroke-linejoin: miter"/>
    </defs>
    <g clip-path="url(#p71127d839e)">
     <use xlink:href="#mdc1cfc3019" x="87.506835" y="260.146931" style="fill: #d06f2b; stroke: #d06f2b; stroke-linejoin: miter"/>
     <use xlink:href="#mdc1cfc3019" x="146.143926" y="258.988563" style="fill: #d06f2b; stroke: #d06f2b; stroke-linejoin: miter"/>
     <use xlink:href="#mdc1cfc3019" x="380.69229" y="261.979415" style="fill: #d06f2b; stroke: #d06f2b; stroke-linejoin: miter"/>
    </g>
   </g>
   <g id="line2d_30">
    <path d="M 72.847562 306.381884
L 395.351562 306.381884
" clip-path="url(#p71127d839e)" style="fill: none; stroke: #172a3a; stroke-width: 0.8; stroke-linecap: square"/>
   </g>
   <g id="patch_3">
    <path d="M 72.847562 313.576
L 72.847562 84.048
" style="fill: none; stroke: #000000; stroke-width: 0.8; stroke-linejoin: miter; stroke-linecap: square"/>
   </g>
   <g id="patch_4">
    <path d="M 72.847562 313.576
L 395.351562 313.576
" style="fill: none; stroke: #000000; stroke-width: 0.8; stroke-linejoin: miter; stroke-linecap: square"/>
   </g>
   <g id="text_13">
    <text style="font-weight: 700; font-size: 12px; font-family: 'DejaVu Sans'; text-anchor: start; fill: #172a3a" x="72.847562" y="78.048" transform="rotate(-0 72.847562 78.048)">Tensor MMA</text>
   </g>
  </g>
  <g id="text_14">
   <text style="font-size: 10px; font-family: 'DejaVu Sans'; fill: #667784" transform="translate(131.777344 403.094656)">Solid: matched-ITER completion</text>
   <text style="font-size: 10px; font-family: 'DejaVu Sans'; fill: #667784" transform="translate(152.274219 414.292469)">Dashed: clocked MI-ATC</text>
   <text style="font-size: 10px; font-family: 'DejaVu Sans'; fill: #667784" transform="translate(108.808594 425.490281)">Dotted squares: Tensor operand-rate ATC</text>
   <text style="font-size: 10px; font-family: 'DejaVu Sans'; fill: #667784" transform="translate(57.502344 436.688094)">Points are signed medians across all measurement-valid rows</text>
  </g>
  <g id="text_15">
   <text style="font-weight: 700; font-size: 14px; font-family: 'DejaVu Sans'; text-anchor: start; fill: #172a3a" x="32.903562" y="17.837812" transform="rotate(-0 32.903562 17.837812)">Tensor coefficient sensitivity across reuse factor and blocks per SM</text>
  </g>
  <g id="legend_1">
   <g id="line2d_31">
    <path d="M 11.2 347.708062
L 21.2 347.708062
L 31.2 347.708062
" style="fill: none; stroke: #2e6f9e; stroke-width: 2; stroke-linecap: square"/>
    <g>
     <use xlink:href="#m66e521a414" x="21.2" y="347.708062" style="fill: #2e6f9e; stroke: #2e6f9e"/>
    </g>
   </g>
   <g id="text_16">
    <text style="font-size: 10px; font-family: 'DejaVu Sans'; text-anchor: start; fill: #172a3a" x="39.2" y="351.208062" transform="rotate(-0 39.2 351.208062)">B=4 direct</text>
   </g>
   <g id="line2d_32">
    <path d="M 11.2 362.386187
L 21.2 362.386187
L 31.2 362.386187
" style="fill: none; stroke-dasharray: 5.92,2.56; stroke-dashoffset: 0; stroke: #2e6f9e; stroke-width: 1.6"/>
    <g>
     <use xlink:href="#m67e92e33f0" x="21.2" y="362.386187" style="fill: #2e6f9e; stroke: #2e6f9e; stroke-linejoin: miter"/>
    </g>
   </g>
   <g id="text_17">
    <text style="font-size: 10px; font-family: 'DejaVu Sans'; text-anchor: start; fill: #172a3a" x="39.2" y="365.886187" transform="rotate(-0 39.2 365.886187)">B=4 MI-ATC</text>
   </g>
   <g id="line2d_33">
    <path d="M 11.2 377.064312
L 21.2 377.064312
L 31.2 377.064312
" style="fill: none; stroke-dasharray: 1.4,2.31; stroke-dashoffset: 0; stroke: #2e6f9e; stroke-width: 1.4"/>
    <g>
     <use xlink:href="#m20892126c4" x="21.2" y="377.064312" style="fill: #2e6f9e; stroke: #2e6f9e; stroke-linejoin: miter"/>
    </g>
   </g>
   <g id="text_18">
    <text style="font-size: 10px; font-family: 'DejaVu Sans'; text-anchor: start; fill: #172a3a" x="39.2" y="380.564312" transform="rotate(-0 39.2 380.564312)">B=4 operand-rate</text>
   </g>
   <g id="line2d_34">
    <path d="M 149.446875 347.708062
L 159.446875 347.708062
L 169.446875 347.708062
" style="fill: none; stroke: #3a7d5d; stroke-width: 2; stroke-linecap: square"/>
    <g>
     <use xlink:href="#ma5714d6a83" x="159.446875" y="347.708062" style="fill: #3a7d5d; stroke: #3a7d5d"/>
    </g>
   </g>
   <g id="text_19">
    <text style="font-size: 10px; font-family: 'DejaVu Sans'; text-anchor: start; fill: #172a3a" x="177.446875" y="351.208062" transform="rotate(-0 177.446875 351.208062)">B=8 direct</text>
   </g>
   <g id="line2d_35">
    <path d="M 149.446875 362.386187
L 159.446875 362.386187
L 169.446875 362.386187
" style="fill: none; stroke-dasharray: 5.92,2.56; stroke-dashoffset: 0; stroke: #3a7d5d; stroke-width: 1.6"/>
    <g>
     <use xlink:href="#md8e792fe8b" x="159.446875" y="362.386187" style="fill: #3a7d5d; stroke: #3a7d5d; stroke-linejoin: miter"/>
    </g>
   </g>
   <g id="text_20">
    <text style="font-size: 10px; font-family: 'DejaVu Sans'; text-anchor: start; fill: #172a3a" x="177.446875" y="365.886187" transform="rotate(-0 177.446875 365.886187)">B=8 MI-ATC</text>
   </g>
   <g id="line2d_36">
    <path d="M 149.446875 377.064312
L 159.446875 377.064312
L 169.446875 377.064312
" style="fill: none; stroke-dasharray: 1.4,2.31; stroke-dashoffset: 0; stroke: #3a7d5d; stroke-width: 1.4"/>
    <g>
     <use xlink:href="#m24a8c74632" x="159.446875" y="377.064312" style="fill: #3a7d5d; stroke: #3a7d5d; stroke-linejoin: miter"/>
    </g>
   </g>
   <g id="text_21">
    <text style="font-size: 10px; font-family: 'DejaVu Sans'; text-anchor: start; fill: #172a3a" x="177.446875" y="380.564312" transform="rotate(-0 177.446875 380.564312)">B=8 operand-rate</text>
   </g>
   <g id="line2d_37">
    <path d="M 287.69375 347.708062
L 297.69375 347.708062
L 307.69375 347.708062
" style="fill: none; stroke: #d06f2b; stroke-width: 2; stroke-linecap: square"/>
    <g>
     <use xlink:href="#me7894ca8bf" x="297.69375" y="347.708062" style="fill: #d06f2b; stroke: #d06f2b"/>
    </g>
   </g>
   <g id="text_22">
    <text style="font-size: 10px; font-family: 'DejaVu Sans'; text-anchor: start; fill: #172a3a" x="315.69375" y="351.208062" transform="rotate(-0 315.69375 351.208062)">B=16 direct</text>
   </g>
   <g id="line2d_38">
    <path d="M 287.69375 362.386187
L 297.69375 362.386187
L 307.69375 362.386187
" style="fill: none; stroke-dasharray: 5.92,2.56; stroke-dashoffset: 0; stroke: #d06f2b; stroke-width: 1.6"/>
    <g>
     <use xlink:href="#meb693c0add" x="297.69375" y="362.386187" style="fill: #d06f2b; stroke: #d06f2b; stroke-linejoin: miter"/>
    </g>
   </g>
   <g id="text_23">
    <text style="font-size: 10px; font-family: 'DejaVu Sans'; text-anchor: start; fill: #172a3a" x="315.69375" y="365.886187" transform="rotate(-0 315.69375 365.886187)">B=16 MI-ATC</text>
   </g>
   <g id="line2d_39">
    <path d="M 287.69375 377.064312
L 297.69375 377.064312
L 307.69375 377.064312
" style="fill: none; stroke-dasharray: 1.4,2.31; stroke-dashoffset: 0; stroke: #d06f2b; stroke-width: 1.4"/>
    <g>
     <use xlink:href="#mdc1cfc3019" x="297.69375" y="377.064312" style="fill: #d06f2b; stroke: #d06f2b; stroke-linejoin: miter"/>
    </g>
   </g>
   <g id="text_24">
    <text style="font-size: 10px; font-family: 'DejaVu Sans'; text-anchor: start; fill: #172a3a" x="315.69375" y="380.564312" transform="rotate(-0 315.69375 380.564312)">B=16 operand-rate</text>
   </g>
  </g>
 </g>
 <defs>
  <clipPath id="p71127d839e">
   <rect x="72.847562" y="84.048" width="322.504" height="229.528"/>
  </clipPath>
 </defs>
</svg>
