<svg xmlns="http://www.w3.org/2000/svg" width="1240" height="580" viewBox="0 0 1240 580">
<title>Tensor MMA reuse-factor incremental energy trend</title>
<rect width="100%" height="100%" fill="#FFFFFF"/>
<text x="38.0" y="38.0" font-family="Arial, sans-serif" font-size="22" font-weight="700" fill="#18181B" text-anchor="start">Tensor MMA incremental energy vs reuse factor</text>
<text x="38.0" y="62.0" font-family="Arial, sans-serif" font-size="13" font-weight="400" fill="#52525B" text-anchor="start">Broad factor-exact NCU sweep: reg_mma - reg_operand_only, RTX 3090, W_SM=2048 KiB, blocks/SM=16, active_SM=82.</text>
<text x="38.0" y="82.0" font-family="Arial, sans-serif" font-size="13" font-weight="400" fill="#52525B" text-anchor="start">RF1/RF2/RF4 are shown to inspect the Tensor MMA increment trend; this sweep is diagnostic because repeat spread is large.</text>
<line x1="82.0" y1="420.0" x2="842.0" y2="420.0" stroke="#18181B" stroke-width="1.2"/>
<line x1="82.0" y1="120.0" x2="82.0" y2="420.0" stroke="#18181B" stroke-width="1.2"/>
<line x1="82.0" y1="420.0" x2="842.0" y2="420.0" stroke="#D4D4D8" stroke-width="1.0"/>
<text x="72.0" y="424.0" font-family="Arial, sans-serif" font-size="10" font-weight="400" fill="#52525B" text-anchor="end">0.000</text>
<line x1="82.0" y1="345.0" x2="842.0" y2="345.0" stroke="#D4D4D8" stroke-width="1.0"/>
<text x="72.0" y="349.0" font-family="Arial, sans-serif" font-size="10" font-weight="400" fill="#52525B" text-anchor="end">0.100</text>
<line x1="82.0" y1="270.0" x2="842.0" y2="270.0" stroke="#D4D4D8" stroke-width="1.0"/>
<text x="72.0" y="274.0" font-family="Arial, sans-serif" font-size="10" font-weight="400" fill="#52525B" text-anchor="end">0.200</text>
<line x1="82.0" y1="195.0" x2="842.0" y2="195.0" stroke="#D4D4D8" stroke-width="1.0"/>
<text x="72.0" y="199.0" font-family="Arial, sans-serif" font-size="10" font-weight="400" fill="#52525B" text-anchor="end">0.300</text>
<line x1="82.0" y1="120.0" x2="842.0" y2="120.0" stroke="#D4D4D8" stroke-width="1.0"/>
<text x="72.0" y="124.0" font-family="Arial, sans-serif" font-size="10" font-weight="400" fill="#52525B" text-anchor="end">0.400</text>
<line x1="82.0" y1="120.0" x2="82.0" y2="420.0" stroke="#D4D4D8" stroke-width="1.0"/>
<text x="82.0" y="440.0" font-family="Arial, sans-serif" font-size="11" font-weight="700" fill="#52525B" text-anchor="middle">RF1</text>
<line x1="272.0" y1="120.0" x2="272.0" y2="420.0" stroke="#D4D4D8" stroke-width="1.0"/>
<text x="272.0" y="440.0" font-family="Arial, sans-serif" font-size="11" font-weight="700" fill="#52525B" text-anchor="middle">RF2</text>
<line x1="462.0" y1="120.0" x2="462.0" y2="420.0" stroke="#D4D4D8" stroke-width="1.0"/>
<text x="462.0" y="440.0" font-family="Arial, sans-serif" font-size="11" font-weight="700" fill="#52525B" text-anchor="middle">RF4</text>
<line x1="652.0" y1="120.0" x2="652.0" y2="420.0" stroke="#D4D4D8" stroke-width="1.0"/>
<text x="652.0" y="440.0" font-family="Arial, sans-serif" font-size="11" font-weight="700" fill="#52525B" text-anchor="middle">RF8</text>
<line x1="842.0" y1="120.0" x2="842.0" y2="420.0" stroke="#D4D4D8" stroke-width="1.0"/>
<text x="842.0" y="440.0" font-family="Arial, sans-serif" font-size="11" font-weight="700" fill="#52525B" text-anchor="middle">RF16</text>
<polyline points="82.0,250.8 272.0,358.7 462.0,186.9 652.0,294.1 842.0,309.4" fill="none" stroke="#5B5FC7" stroke-width="3.0"/>
<line x1="82.0" y1="160.7" x2="82.0" y2="379.4" stroke="#5B5FC7" stroke-width="1.6"/>
<line x1="74.0" y1="160.7" x2="90.0" y2="160.7" stroke="#5B5FC7" stroke-width="1.6"/>
<line x1="74.0" y1="379.4" x2="90.0" y2="379.4" stroke="#5B5FC7" stroke-width="1.6"/>
<circle cx="75.0" cy="379.4" r="3.6" fill="#A5B4FC"/>
<circle cx="82.0" cy="250.8" r="3.6" fill="#A5B4FC"/>
<circle cx="89.0" cy="160.7" r="3.6" fill="#A5B4FC"/>
<circle cx="82.0" cy="250.8" r="5.5" fill="#5B5FC7"/>
<text x="82.0" y="237.8" font-family="Arial, sans-serif" font-size="10" font-weight="700" fill="#5B5FC7" text-anchor="middle">0.226</text>
<line x1="272.0" y1="150.5" x2="272.0" y2="361.1" stroke="#5B5FC7" stroke-width="1.6"/>
<line x1="264.0" y1="150.5" x2="280.0" y2="150.5" stroke="#5B5FC7" stroke-width="1.6"/>
<line x1="264.0" y1="361.1" x2="280.0" y2="361.1" stroke="#5B5FC7" stroke-width="1.6"/>
<circle cx="265.0" cy="361.1" r="3.6" fill="#A5B4FC"/>
<circle cx="272.0" cy="358.7" r="3.6" fill="#A5B4FC"/>
<circle cx="279.0" cy="150.5" r="3.6" fill="#A5B4FC"/>
<circle cx="272.0" cy="358.7" r="5.5" fill="#5B5FC7"/>
<text x="272.0" y="345.7" font-family="Arial, sans-serif" font-size="10" font-weight="700" fill="#5B5FC7" text-anchor="middle">0.082</text>
<line x1="462.0" y1="150.2" x2="462.0" y2="280.2" stroke="#5B5FC7" stroke-width="1.6"/>
<line x1="454.0" y1="150.2" x2="470.0" y2="150.2" stroke="#5B5FC7" stroke-width="1.6"/>
<line x1="454.0" y1="280.2" x2="470.0" y2="280.2" stroke="#5B5FC7" stroke-width="1.6"/>
<circle cx="455.0" cy="280.2" r="3.6" fill="#A5B4FC"/>
<circle cx="462.0" cy="186.9" r="3.6" fill="#A5B4FC"/>
<circle cx="469.0" cy="150.2" r="3.6" fill="#A5B4FC"/>
<circle cx="462.0" cy="186.9" r="5.5" fill="#5B5FC7"/>
<text x="462.0" y="173.9" font-family="Arial, sans-serif" font-size="10" font-weight="700" fill="#5B5FC7" text-anchor="middle">0.311</text>
<line x1="652.0" y1="228.8" x2="652.0" y2="345.3" stroke="#5B5FC7" stroke-width="1.6"/>
<line x1="644.0" y1="228.8" x2="660.0" y2="228.8" stroke="#5B5FC7" stroke-width="1.6"/>
<line x1="644.0" y1="345.3" x2="660.0" y2="345.3" stroke="#5B5FC7" stroke-width="1.6"/>
<circle cx="645.0" cy="345.3" r="3.6" fill="#A5B4FC"/>
<circle cx="652.0" cy="294.1" r="3.6" fill="#A5B4FC"/>
<circle cx="659.0" cy="228.8" r="3.6" fill="#A5B4FC"/>
<circle cx="652.0" cy="294.1" r="5.5" fill="#5B5FC7"/>
<text x="652.0" y="281.1" font-family="Arial, sans-serif" font-size="10" font-weight="700" fill="#5B5FC7" text-anchor="middle">0.168</text>
<line x1="842.0" y1="292.7" x2="842.0" y2="329.9" stroke="#5B5FC7" stroke-width="1.6"/>
<line x1="834.0" y1="292.7" x2="850.0" y2="292.7" stroke="#5B5FC7" stroke-width="1.6"/>
<line x1="834.0" y1="329.9" x2="850.0" y2="329.9" stroke="#5B5FC7" stroke-width="1.6"/>
<circle cx="835.0" cy="329.9" r="3.6" fill="#A5B4FC"/>
<circle cx="842.0" cy="309.4" r="3.6" fill="#A5B4FC"/>
<circle cx="849.0" cy="292.7" r="3.6" fill="#A5B4FC"/>
<circle cx="842.0" cy="309.4" r="5.5" fill="#5B5FC7"/>
<text x="842.0" y="296.4" font-family="Arial, sans-serif" font-size="10" font-weight="700" fill="#5B5FC7" text-anchor="middle">0.147</text>
<text x="462.0" y="468.0" font-family="Arial, sans-serif" font-size="12" font-weight="700" fill="#52525B" text-anchor="middle">reuse factor (unitless)</text>
<text x="82.0" y="108.0" font-family="Arial, sans-serif" font-size="12" font-weight="700" fill="#52525B" text-anchor="start">pJ/FLOP</text>
<text x="890.0" y="112.0" font-family="Arial, sans-serif" font-size="15" font-weight="700" fill="#18181B" text-anchor="start">Median and repeat range</text>
<rect x="890.0" y="128.0" width="310.0" height="216.0" fill="#FAFAFA" stroke="#D4D4D8"/>
<text x="915.0" y="152.0" font-family="Arial, sans-serif" font-size="11" font-weight="700" fill="#52525B" text-anchor="middle">RF</text>
<text x="975.0" y="152.0" font-family="Arial, sans-serif" font-size="11" font-weight="700" fill="#52525B" text-anchor="start">median</text>
<text x="1065.0" y="152.0" font-family="Arial, sans-serif" font-size="11" font-weight="700" fill="#52525B" text-anchor="start">min-max</text>
<rect x="891.0" y="162.0" width="308.0" height="27.0" fill="#F4F4F5"/>
<text x="915.0" y="180.0" font-family="Arial, sans-serif" font-size="11" font-weight="700" fill="#18181B" text-anchor="middle">1</text>
<text x="975.0" y="180.0" font-family="Arial, sans-serif" font-size="11" font-weight="700" fill="#5B5FC7" text-anchor="start">0.226</text>
<text x="1065.0" y="180.0" font-family="Arial, sans-serif" font-size="11" font-weight="400" fill="#52525B" text-anchor="start">0.054-0.346</text>
<text x="915.0" y="210.0" font-family="Arial, sans-serif" font-size="11" font-weight="700" fill="#18181B" text-anchor="middle">2</text>
<text x="975.0" y="210.0" font-family="Arial, sans-serif" font-size="11" font-weight="700" fill="#5B5FC7" text-anchor="start">0.082</text>
<text x="1065.0" y="210.0" font-family="Arial, sans-serif" font-size="11" font-weight="400" fill="#52525B" text-anchor="start">0.078-0.359</text>
<rect x="891.0" y="222.0" width="308.0" height="27.0" fill="#F4F4F5"/>
<text x="915.0" y="240.0" font-family="Arial, sans-serif" font-size="11" font-weight="700" fill="#18181B" text-anchor="middle">4</text>
<text x="975.0" y="240.0" font-family="Arial, sans-serif" font-size="11" font-weight="700" fill="#5B5FC7" text-anchor="start">0.311</text>
<text x="1065.0" y="240.0" font-family="Arial, sans-serif" font-size="11" font-weight="400" fill="#52525B" text-anchor="start">0.186-0.360</text>
<text x="915.0" y="270.0" font-family="Arial, sans-serif" font-size="11" font-weight="700" fill="#18181B" text-anchor="middle">8</text>
<text x="975.0" y="270.0" font-family="Arial, sans-serif" font-size="11" font-weight="700" fill="#5B5FC7" text-anchor="start">0.168</text>
<text x="1065.0" y="270.0" font-family="Arial, sans-serif" font-size="11" font-weight="400" fill="#52525B" text-anchor="start">0.100-0.255</text>
<rect x="891.0" y="282.0" width="308.0" height="27.0" fill="#F4F4F5"/>
<text x="915.0" y="300.0" font-family="Arial, sans-serif" font-size="11" font-weight="700" fill="#18181B" text-anchor="middle">16</text>
<text x="975.0" y="300.0" font-family="Arial, sans-serif" font-size="11" font-weight="700" fill="#5B5FC7" text-anchor="start">0.147</text>
<text x="1065.0" y="300.0" font-family="Arial, sans-serif" font-size="11" font-weight="400" fill="#52525B" text-anchor="start">0.120-0.170</text>
<text x="890.0" y="390.0" font-family="Arial, sans-serif" font-size="14" font-weight="700" fill="#18181B" text-anchor="start">How to read this</text>
<text x="890.0" y="414.0" font-family="Arial, sans-serif" font-size="11" font-weight="400" fill="#52525B" text-anchor="start">3 valid treatment-control rows per RF.</text>
<text x="890.0" y="434.0" font-family="Arial, sans-serif" font-size="11" font-weight="400" fill="#52525B" text-anchor="start">Line = median; whisker = min-max; pale dots = repeats.</text>
<text x="890.0" y="454.0" font-family="Arial, sans-serif" font-size="11" font-weight="400" fill="#52525B" text-anchor="start">RF1/2/4 show trend only; repeat spread is high.</text>
<text x="890.0" y="474.0" font-family="Arial, sans-serif" font-size="11" font-weight="400" fill="#52525B" text-anchor="start">Reported Tensor range uses RF8/RF16 targeted/duration.</text>
<text x="38.0" y="530.0" font-family="Arial, sans-serif" font-size="12" font-weight="400" fill="#52525B" text-anchor="start">Coefficient meaning: board-level effective pJ/FLOP for the additional WMMA/HMMA work after subtracting the register-operand control; not pure Tensor Core silicon energy.</text>
</svg>
