<svg xmlns="http://www.w3.org/2000/svg" width="1160" height="760" viewBox="0 0 1160 760">
<title>Finalplan factor sweep coefficients</title>
<rect width="100%" height="100%" fill="#FFFFFF"/>
<text x="38.0" y="38.0" font-family="Arial, sans-serif" font-size="22" font-weight="700" fill="#18181B" text-anchor="start">RTX 3090 finalplan factor sweep results</text>
<text x="38.0" y="62.0" font-family="Arial, sans-serif" font-size="13" font-weight="400" fill="#52525B" text-anchor="start">Each point is a treatment-control coefficient. Tensor uses FLOP denominator; memory paths use NCU-corrected bytes.</text>
<text x="58.0" y="105.0" font-family="Arial, sans-serif" font-size="14" font-weight="700" fill="#18181B" text-anchor="start">Tensor MMA incremental</text>
<text x="58.0" y="123.0" font-family="Arial, sans-serif" font-size="11" font-weight="400" fill="#52525B" text-anchor="start">pJ/FLOP</text>
<line x1="106.0" y1="266.0" x2="352.0" y2="266.0" stroke="#18181B" stroke-width="1.1"/>
<line x1="106.0" y1="143.0" x2="106.0" y2="266.0" stroke="#18181B" stroke-width="1.1"/>
<line x1="106.0" y1="266.0" x2="352.0" y2="266.0" stroke="#D4D4D8" stroke-width="1.0"/>
<text x="98.0" y="270.0" font-family="Arial, sans-serif" font-size="10" font-weight="400" fill="#52525B" text-anchor="end">0</text>
<line x1="106.0" y1="204.5" x2="352.0" y2="204.5" stroke="#D4D4D8" stroke-width="1.0"/>
<text x="98.0" y="208.5" font-family="Arial, sans-serif" font-size="10" font-weight="400" fill="#52525B" text-anchor="end">0.174</text>
<line x1="106.0" y1="143.0" x2="352.0" y2="143.0" stroke="#D4D4D8" stroke-width="1.0"/>
<text x="98.0" y="147.0" font-family="Arial, sans-serif" font-size="10" font-weight="400" fill="#52525B" text-anchor="end">0.349</text>
<line x1="106.0" y1="143.0" x2="106.0" y2="266.0" stroke="#D4D4D8" stroke-width="1.0"/>
<text x="106.0" y="283.0" font-family="Arial, sans-serif" font-size="10" font-weight="400" fill="#52525B" text-anchor="middle">1</text>
<line x1="167.5" y1="143.0" x2="167.5" y2="266.0" stroke="#D4D4D8" stroke-width="1.0"/>
<text x="167.5" y="283.0" font-family="Arial, sans-serif" font-size="10" font-weight="400" fill="#52525B" text-anchor="middle">2</text>
<line x1="229.0" y1="143.0" x2="229.0" y2="266.0" stroke="#D4D4D8" stroke-width="1.0"/>
<text x="229.0" y="283.0" font-family="Arial, sans-serif" font-size="10" font-weight="400" fill="#52525B" text-anchor="middle">4</text>
<line x1="290.5" y1="143.0" x2="290.5" y2="266.0" stroke="#D4D4D8" stroke-width="1.0"/>
<text x="290.5" y="283.0" font-family="Arial, sans-serif" font-size="10" font-weight="400" fill="#52525B" text-anchor="middle">8</text>
<line x1="352.0" y1="143.0" x2="352.0" y2="266.0" stroke="#D4D4D8" stroke-width="1.0"/>
<text x="352.0" y="283.0" font-family="Arial, sans-serif" font-size="10" font-weight="400" fill="#52525B" text-anchor="middle">16</text>
<polyline points="106.0,214.2 167.5,206.7 229.0,161.8 290.5,205.5 352.0,235.0" fill="none" stroke="#5B5FC7" stroke-width="2.4"/>
<circle cx="106.0" cy="214.2" r="4.0" fill="#5B5FC7"/>
<text x="106.0" y="206.2" font-family="Arial, sans-serif" font-size="9" font-weight="700" fill="#5B5FC7" text-anchor="middle">0.147</text>
<circle cx="167.5" cy="206.7" r="4.0" fill="#5B5FC7"/>
<text x="167.5" y="198.7" font-family="Arial, sans-serif" font-size="9" font-weight="700" fill="#5B5FC7" text-anchor="middle">0.168</text>
<circle cx="229.0" cy="161.8" r="4.0" fill="#5B5FC7"/>
<text x="229.0" y="153.8" font-family="Arial, sans-serif" font-size="9" font-weight="700" fill="#5B5FC7" text-anchor="middle">0.295</text>
<circle cx="290.5" cy="205.5" r="4.0" fill="#5B5FC7"/>
<text x="290.5" y="197.5" font-family="Arial, sans-serif" font-size="9" font-weight="700" fill="#5B5FC7" text-anchor="middle">0.171</text>
<circle cx="352.0" cy="235.0" r="4.0" fill="#5B5FC7"/>
<text x="352.0" y="227.0" font-family="Arial, sans-serif" font-size="9" font-weight="700" fill="#5B5FC7" text-anchor="middle">0.0878</text>
<line x1="106.0" y1="206.7" x2="352.0" y2="206.7" stroke="#52525B" stroke-width="1.0"/>
<text x="358.0" y="210.7" font-family="Arial, sans-serif" font-size="9" font-weight="400" fill="#52525B" text-anchor="start">med 0.168</text>
<text x="229.0" y="303.0" font-family="Arial, sans-serif" font-size="11" font-weight="700" fill="#52525B" text-anchor="middle">reuse factor</text>
<text x="420.0" y="105.0" font-family="Arial, sans-serif" font-size="14" font-weight="700" fill="#18181B" text-anchor="start">Shared scalar path</text>
<text x="420.0" y="123.0" font-family="Arial, sans-serif" font-size="11" font-weight="400" fill="#52525B" text-anchor="start">pJ/bit</text>
<line x1="468.0" y1="266.0" x2="714.0" y2="266.0" stroke="#18181B" stroke-width="1.1"/>
<line x1="468.0" y1="143.0" x2="468.0" y2="266.0" stroke="#18181B" stroke-width="1.1"/>
<line x1="468.0" y1="266.0" x2="714.0" y2="266.0" stroke="#D4D4D8" stroke-width="1.0"/>
<text x="460.0" y="270.0" font-family="Arial, sans-serif" font-size="10" font-weight="400" fill="#52525B" text-anchor="end">0</text>
<line x1="468.0" y1="204.5" x2="714.0" y2="204.5" stroke="#D4D4D8" stroke-width="1.0"/>
<text x="460.0" y="208.5" font-family="Arial, sans-serif" font-size="10" font-weight="400" fill="#52525B" text-anchor="end">0.542</text>
<line x1="468.0" y1="143.0" x2="714.0" y2="143.0" stroke="#D4D4D8" stroke-width="1.0"/>
<text x="460.0" y="147.0" font-family="Arial, sans-serif" font-size="10" font-weight="400" fill="#52525B" text-anchor="end">1.08</text>
<line x1="468.0" y1="143.0" x2="468.0" y2="266.0" stroke="#D4D4D8" stroke-width="1.0"/>
<text x="468.0" y="283.0" font-family="Arial, sans-serif" font-size="10" font-weight="400" fill="#52525B" text-anchor="middle">1</text>
<line x1="529.5" y1="143.0" x2="529.5" y2="266.0" stroke="#D4D4D8" stroke-width="1.0"/>
<text x="529.5" y="283.0" font-family="Arial, sans-serif" font-size="10" font-weight="400" fill="#52525B" text-anchor="middle">2</text>
<line x1="591.0" y1="143.0" x2="591.0" y2="266.0" stroke="#D4D4D8" stroke-width="1.0"/>
<text x="591.0" y="283.0" font-family="Arial, sans-serif" font-size="10" font-weight="400" fill="#52525B" text-anchor="middle">4</text>
<line x1="652.5" y1="143.0" x2="652.5" y2="266.0" stroke="#D4D4D8" stroke-width="1.0"/>
<text x="652.5" y="283.0" font-family="Arial, sans-serif" font-size="10" font-weight="400" fill="#52525B" text-anchor="middle">8</text>
<line x1="714.0" y1="143.0" x2="714.0" y2="266.0" stroke="#D4D4D8" stroke-width="1.0"/>
<text x="714.0" y="283.0" font-family="Arial, sans-serif" font-size="10" font-weight="400" fill="#52525B" text-anchor="middle">16</text>
<polyline points="468.0,200.0 529.5,161.8 591.0,240.2 652.5,235.3 714.0,254.7" fill="none" stroke="#D97706" stroke-width="2.4"/>
<circle cx="468.0" cy="200.0" r="4.0" fill="#D97706"/>
<text x="468.0" y="192.0" font-family="Arial, sans-serif" font-size="9" font-weight="700" fill="#D97706" text-anchor="middle">0.582</text>
<circle cx="529.5" cy="161.8" r="4.0" fill="#D97706"/>
<text x="529.5" y="153.8" font-family="Arial, sans-serif" font-size="9" font-weight="700" fill="#D97706" text-anchor="middle">0.919</text>
<circle cx="591.0" cy="240.2" r="4.0" fill="#D97706"/>
<text x="591.0" y="232.2" font-family="Arial, sans-serif" font-size="9" font-weight="700" fill="#D97706" text-anchor="middle">0.228</text>
<circle cx="652.5" cy="235.3" r="4.0" fill="#D97706"/>
<text x="652.5" y="227.3" font-family="Arial, sans-serif" font-size="9" font-weight="700" fill="#D97706" text-anchor="middle">0.271</text>
<circle cx="714.0" cy="254.7" r="4.0" fill="#D97706"/>
<text x="714.0" y="246.7" font-family="Arial, sans-serif" font-size="9" font-weight="700" fill="#D97706" text-anchor="middle">0.0997</text>
<line x1="468.0" y1="235.3" x2="714.0" y2="235.3" stroke="#52525B" stroke-width="1.0"/>
<text x="720.0" y="239.3" font-family="Arial, sans-serif" font-size="9" font-weight="400" fill="#52525B" text-anchor="start">med 0.271</text>
<text x="591.0" y="303.0" font-family="Arial, sans-serif" font-size="11" font-weight="700" fill="#52525B" text-anchor="middle">load repeat</text>
<text x="782.0" y="105.0" font-family="Arial, sans-serif" font-size="14" font-weight="700" fill="#18181B" text-anchor="start">Global L1 hit path</text>
<text x="782.0" y="123.0" font-family="Arial, sans-serif" font-size="11" font-weight="400" fill="#52525B" text-anchor="start">pJ/bit</text>
<line x1="830.0" y1="266.0" x2="1076.0" y2="266.0" stroke="#18181B" stroke-width="1.1"/>
<line x1="830.0" y1="143.0" x2="830.0" y2="266.0" stroke="#18181B" stroke-width="1.1"/>
<line x1="830.0" y1="266.0" x2="1076.0" y2="266.0" stroke="#D4D4D8" stroke-width="1.0"/>
<text x="822.0" y="270.0" font-family="Arial, sans-serif" font-size="10" font-weight="400" fill="#52525B" text-anchor="end">0</text>
<line x1="830.0" y1="204.5" x2="1076.0" y2="204.5" stroke="#D4D4D8" stroke-width="1.0"/>
<text x="822.0" y="208.5" font-family="Arial, sans-serif" font-size="10" font-weight="400" fill="#52525B" text-anchor="end">0.407</text>
<line x1="830.0" y1="143.0" x2="1076.0" y2="143.0" stroke="#D4D4D8" stroke-width="1.0"/>
<text x="822.0" y="147.0" font-family="Arial, sans-serif" font-size="10" font-weight="400" fill="#52525B" text-anchor="end">0.814</text>
<line x1="830.0" y1="143.0" x2="830.0" y2="266.0" stroke="#D4D4D8" stroke-width="1.0"/>
<text x="830.0" y="283.0" font-family="Arial, sans-serif" font-size="10" font-weight="400" fill="#52525B" text-anchor="middle">1</text>
<line x1="891.5" y1="143.0" x2="891.5" y2="266.0" stroke="#D4D4D8" stroke-width="1.0"/>
<text x="891.5" y="283.0" font-family="Arial, sans-serif" font-size="10" font-weight="400" fill="#52525B" text-anchor="middle">2</text>
<line x1="953.0" y1="143.0" x2="953.0" y2="266.0" stroke="#D4D4D8" stroke-width="1.0"/>
<text x="953.0" y="283.0" font-family="Arial, sans-serif" font-size="10" font-weight="400" fill="#52525B" text-anchor="middle">4</text>
<line x1="1014.5" y1="143.0" x2="1014.5" y2="266.0" stroke="#D4D4D8" stroke-width="1.0"/>
<text x="1014.5" y="283.0" font-family="Arial, sans-serif" font-size="10" font-weight="400" fill="#52525B" text-anchor="middle">8</text>
<line x1="1076.0" y1="143.0" x2="1076.0" y2="266.0" stroke="#D4D4D8" stroke-width="1.0"/>
<text x="1076.0" y="283.0" font-family="Arial, sans-serif" font-size="10" font-weight="400" fill="#52525B" text-anchor="middle">16</text>
<polyline points="830.0,223.7 891.5,161.8 953.0,242.4 1014.5,244.3 1076.0,254.1" fill="none" stroke="#0F766E" stroke-width="2.4"/>
<circle cx="830.0" cy="223.7" r="4.0" fill="#0F766E"/>
<text x="830.0" y="215.7" font-family="Arial, sans-serif" font-size="9" font-weight="700" fill="#0F766E" text-anchor="middle">0.28</text>
<circle cx="891.5" cy="161.8" r="4.0" fill="#0F766E"/>
<text x="891.5" y="153.8" font-family="Arial, sans-serif" font-size="9" font-weight="700" fill="#0F766E" text-anchor="middle">0.69</text>
<circle cx="953.0" cy="242.4" r="4.0" fill="#0F766E"/>
<text x="953.0" y="234.4" font-family="Arial, sans-serif" font-size="9" font-weight="700" fill="#0F766E" text-anchor="middle">0.156</text>
<circle cx="1014.5" cy="244.3" r="4.0" fill="#0F766E"/>
<text x="1014.5" y="236.3" font-family="Arial, sans-serif" font-size="9" font-weight="700" fill="#0F766E" text-anchor="middle">0.143</text>
<circle cx="1076.0" cy="254.1" r="4.0" fill="#0F766E"/>
<text x="1076.0" y="246.1" font-family="Arial, sans-serif" font-size="9" font-weight="700" fill="#0F766E" text-anchor="middle">0.0789</text>
<line x1="830.0" y1="242.4" x2="1076.0" y2="242.4" stroke="#52525B" stroke-width="1.0"/>
<text x="1082.0" y="246.4" font-family="Arial, sans-serif" font-size="9" font-weight="400" fill="#52525B" text-anchor="start">med 0.156</text>
<text x="953.0" y="303.0" font-family="Arial, sans-serif" font-size="11" font-weight="700" fill="#52525B" text-anchor="middle">load repeat</text>
<text x="238.0" y="390.0" font-family="Arial, sans-serif" font-size="14" font-weight="700" fill="#18181B" text-anchor="start">L2 CG hit path</text>
<text x="238.0" y="408.0" font-family="Arial, sans-serif" font-size="11" font-weight="400" fill="#52525B" text-anchor="start">pJ/bit</text>
<line x1="286.0" y1="551.0" x2="532.0" y2="551.0" stroke="#18181B" stroke-width="1.1"/>
<line x1="286.0" y1="428.0" x2="286.0" y2="551.0" stroke="#18181B" stroke-width="1.1"/>
<line x1="286.0" y1="551.0" x2="532.0" y2="551.0" stroke="#D4D4D8" stroke-width="1.0"/>
<text x="278.0" y="555.0" font-family="Arial, sans-serif" font-size="10" font-weight="400" fill="#52525B" text-anchor="end">0</text>
<line x1="286.0" y1="489.5" x2="532.0" y2="489.5" stroke="#D4D4D8" stroke-width="1.0"/>
<text x="278.0" y="493.5" font-family="Arial, sans-serif" font-size="10" font-weight="400" fill="#52525B" text-anchor="end">1.81</text>
<line x1="286.0" y1="428.0" x2="532.0" y2="428.0" stroke="#D4D4D8" stroke-width="1.0"/>
<text x="278.0" y="432.0" font-family="Arial, sans-serif" font-size="10" font-weight="400" fill="#52525B" text-anchor="end">3.62</text>
<line x1="286.0" y1="428.0" x2="286.0" y2="551.0" stroke="#D4D4D8" stroke-width="1.0"/>
<text x="286.0" y="568.0" font-family="Arial, sans-serif" font-size="10" font-weight="400" fill="#52525B" text-anchor="middle">1</text>
<line x1="347.5" y1="428.0" x2="347.5" y2="551.0" stroke="#D4D4D8" stroke-width="1.0"/>
<text x="347.5" y="568.0" font-family="Arial, sans-serif" font-size="10" font-weight="400" fill="#52525B" text-anchor="middle">2</text>
<line x1="409.0" y1="428.0" x2="409.0" y2="551.0" stroke="#D4D4D8" stroke-width="1.0"/>
<text x="409.0" y="568.0" font-family="Arial, sans-serif" font-size="10" font-weight="400" fill="#52525B" text-anchor="middle">4</text>
<line x1="470.5" y1="428.0" x2="470.5" y2="551.0" stroke="#D4D4D8" stroke-width="1.0"/>
<text x="470.5" y="568.0" font-family="Arial, sans-serif" font-size="10" font-weight="400" fill="#52525B" text-anchor="middle">8</text>
<line x1="532.0" y1="428.0" x2="532.0" y2="551.0" stroke="#D4D4D8" stroke-width="1.0"/>
<text x="532.0" y="568.0" font-family="Arial, sans-serif" font-size="10" font-weight="400" fill="#52525B" text-anchor="middle">16</text>
<polyline points="286.0,486.1 347.5,446.8 409.0,511.0 470.5,518.8 532.0,518.7" fill="none" stroke="#2563EB" stroke-width="2.4"/>
<circle cx="286.0" cy="486.1" r="4.0" fill="#2563EB"/>
<text x="286.0" y="478.1" font-family="Arial, sans-serif" font-size="9" font-weight="700" fill="#2563EB" text-anchor="middle">1.91</text>
<circle cx="347.5" cy="446.8" r="4.0" fill="#2563EB"/>
<text x="347.5" y="438.8" font-family="Arial, sans-serif" font-size="9" font-weight="700" fill="#2563EB" text-anchor="middle">3.06</text>
<circle cx="409.0" cy="511.0" r="4.0" fill="#2563EB"/>
<text x="409.0" y="503.0" font-family="Arial, sans-serif" font-size="9" font-weight="700" fill="#2563EB" text-anchor="middle">1.18</text>
<circle cx="470.5" cy="518.8" r="4.0" fill="#2563EB"/>
<text x="470.5" y="510.8" font-family="Arial, sans-serif" font-size="9" font-weight="700" fill="#2563EB" text-anchor="middle">0.947</text>
<circle cx="532.0" cy="518.7" r="4.0" fill="#2563EB"/>
<text x="532.0" y="510.7" font-family="Arial, sans-serif" font-size="9" font-weight="700" fill="#2563EB" text-anchor="middle">0.948</text>
<line x1="286.0" y1="511.0" x2="532.0" y2="511.0" stroke="#52525B" stroke-width="1.0"/>
<text x="538.0" y="515.0" font-family="Arial, sans-serif" font-size="9" font-weight="400" fill="#52525B" text-anchor="start">med 1.18</text>
<text x="409.0" y="588.0" font-family="Arial, sans-serif" font-size="11" font-weight="700" fill="#52525B" text-anchor="middle">load repeat</text>
<text x="600.0" y="390.0" font-family="Arial, sans-serif" font-size="14" font-weight="700" fill="#18181B" text-anchor="start">DRAM CG streaming sanity</text>
<text x="600.0" y="408.0" font-family="Arial, sans-serif" font-size="11" font-weight="400" fill="#52525B" text-anchor="start">pJ/bit</text>
<line x1="648.0" y1="551.0" x2="894.0" y2="551.0" stroke="#18181B" stroke-width="1.1"/>
<line x1="648.0" y1="428.0" x2="648.0" y2="551.0" stroke="#18181B" stroke-width="1.1"/>
<line x1="648.0" y1="551.0" x2="894.0" y2="551.0" stroke="#D4D4D8" stroke-width="1.0"/>
<text x="640.0" y="555.0" font-family="Arial, sans-serif" font-size="10" font-weight="400" fill="#52525B" text-anchor="end">0</text>
<line x1="648.0" y1="489.5" x2="894.0" y2="489.5" stroke="#D4D4D8" stroke-width="1.0"/>
<text x="640.0" y="493.5" font-family="Arial, sans-serif" font-size="10" font-weight="400" fill="#52525B" text-anchor="end">3.57</text>
<line x1="648.0" y1="428.0" x2="894.0" y2="428.0" stroke="#D4D4D8" stroke-width="1.0"/>
<text x="640.0" y="432.0" font-family="Arial, sans-serif" font-size="10" font-weight="400" fill="#52525B" text-anchor="end">7.13</text>
<line x1="648.0" y1="428.0" x2="648.0" y2="551.0" stroke="#D4D4D8" stroke-width="1.0"/>
<text x="648.0" y="568.0" font-family="Arial, sans-serif" font-size="10" font-weight="400" fill="#52525B" text-anchor="middle">1</text>
<line x1="771.0" y1="428.0" x2="771.0" y2="551.0" stroke="#D4D4D8" stroke-width="1.0"/>
<text x="771.0" y="568.0" font-family="Arial, sans-serif" font-size="10" font-weight="400" fill="#52525B" text-anchor="middle">4</text>
<line x1="894.0" y1="428.0" x2="894.0" y2="551.0" stroke="#D4D4D8" stroke-width="1.0"/>
<text x="894.0" y="568.0" font-family="Arial, sans-serif" font-size="10" font-weight="400" fill="#52525B" text-anchor="middle">16</text>
<polyline points="648.0,446.8 771.0,481.9 894.0,502.3" fill="none" stroke="#B91C1C" stroke-width="2.4"/>
<circle cx="648.0" cy="446.8" r="4.0" fill="#B91C1C"/>
<text x="648.0" y="438.8" font-family="Arial, sans-serif" font-size="9" font-weight="700" fill="#B91C1C" text-anchor="middle">6.04</text>
<circle cx="771.0" cy="481.9" r="4.0" fill="#B91C1C"/>
<text x="771.0" y="473.9" font-family="Arial, sans-serif" font-size="9" font-weight="700" fill="#B91C1C" text-anchor="middle">4.01</text>
<circle cx="894.0" cy="502.3" r="4.0" fill="#B91C1C"/>
<text x="894.0" y="494.3" font-family="Arial, sans-serif" font-size="9" font-weight="700" fill="#B91C1C" text-anchor="middle">2.83</text>
<line x1="648.0" y1="481.9" x2="894.0" y2="481.9" stroke="#52525B" stroke-width="1.0"/>
<text x="900.0" y="485.9" font-family="Arial, sans-serif" font-size="9" font-weight="400" fill="#52525B" text-anchor="start">med 4.01</text>
<text x="771.0" y="588.0" font-family="Arial, sans-serif" font-size="11" font-weight="700" fill="#52525B" text-anchor="middle">load repeat</text>
<text x="38.0" y="684.0" font-family="Arial, sans-serif" font-size="12" font-weight="700" fill="#71717A" text-anchor="start">Rejected L1 W_SM=64 KiB rows</text>
<text x="38.0" y="704.0" font-family="Arial, sans-serif" font-size="11" font-weight="400" fill="#52525B" text-anchor="start">LR1: 0.317, LR2: 1.08, LR4: -0.116, LR8: -0.398, LR16: -0.545 pJ/bit; excluded because NCU denominator was missing and some coefficients were negative.</text>
<text x="38.0" y="732.0" font-family="Arial, sans-serif" font-size="12" font-weight="400" fill="#52525B" text-anchor="start">Interpretation: flatter and positive curves are more trustworthy; large spread means the effective coefficient still includes control/stall effects.</text>
</svg>
