<svg xmlns="http://www.w3.org/2000/svg" width="940" height="500" viewBox="0 0 940 500">
<title>Sweep 1 blocks per SM trend</title>
<rect width="100%" height="100%" fill="#FFFFFF"/>
<text x="38.0" y="38.0" font-family="Arial, sans-serif" font-size="22" font-weight="700" fill="#18181B" text-anchor="start">Sweep 1: blocks/SM trend</text>
<text x="38.0" y="62.0" font-family="Arial, sans-serif" font-size="13" font-weight="400" fill="#52525B" text-anchor="start">Fixed W_SM per mode; y-axis is log10(pJ/FLOP) to compare compute and memory-heavy modes.</text>
<line x1="92.0" y1="405.0" x2="852.0" y2="405.0" stroke="#D4D4D8" stroke-width="1.0"/>
<text x="80.0" y="409.0" font-family="Arial, sans-serif" font-size="11" font-weight="400" fill="#52525B" text-anchor="end">2</text>
<line x1="92.0" y1="337.0" x2="852.0" y2="337.0" stroke="#D4D4D8" stroke-width="1.0"/>
<text x="80.0" y="341.0" font-family="Arial, sans-serif" font-size="11" font-weight="400" fill="#52525B" text-anchor="end">5</text>
<line x1="92.0" y1="285.5" x2="852.0" y2="285.5" stroke="#D4D4D8" stroke-width="1.0"/>
<text x="80.0" y="289.5" font-family="Arial, sans-serif" font-size="11" font-weight="400" fill="#52525B" text-anchor="end">10</text>
<line x1="92.0" y1="234.0" x2="852.0" y2="234.0" stroke="#D4D4D8" stroke-width="1.0"/>
<text x="80.0" y="238.0" font-family="Arial, sans-serif" font-size="11" font-weight="400" fill="#52525B" text-anchor="end">20</text>
<line x1="92.0" y1="166.0" x2="852.0" y2="166.0" stroke="#D4D4D8" stroke-width="1.0"/>
<text x="80.0" y="170.0" font-family="Arial, sans-serif" font-size="11" font-weight="400" fill="#52525B" text-anchor="end">50</text>
<line x1="92.0" y1="114.5" x2="852.0" y2="114.5" stroke="#D4D4D8" stroke-width="1.0"/>
<text x="80.0" y="118.5" font-family="Arial, sans-serif" font-size="11" font-weight="400" fill="#52525B" text-anchor="end">100</text>
<line x1="92.0" y1="95.0" x2="92.0" y2="405.0" stroke="#D4D4D8" stroke-width="1.0"/>
<text x="92.0" y="427.0" font-family="Arial, sans-serif" font-size="12" font-weight="400" fill="#52525B" text-anchor="middle">1</text>
<line x1="282.0" y1="95.0" x2="282.0" y2="405.0" stroke="#D4D4D8" stroke-width="1.0"/>
<text x="282.0" y="427.0" font-family="Arial, sans-serif" font-size="12" font-weight="400" fill="#52525B" text-anchor="middle">2</text>
<line x1="472.0" y1="95.0" x2="472.0" y2="405.0" stroke="#D4D4D8" stroke-width="1.0"/>
<text x="472.0" y="427.0" font-family="Arial, sans-serif" font-size="12" font-weight="400" fill="#52525B" text-anchor="middle">4</text>
<line x1="662.0" y1="95.0" x2="662.0" y2="405.0" stroke="#D4D4D8" stroke-width="1.0"/>
<text x="662.0" y="427.0" font-family="Arial, sans-serif" font-size="12" font-weight="400" fill="#52525B" text-anchor="middle">8</text>
<line x1="852.0" y1="95.0" x2="852.0" y2="405.0" stroke="#D4D4D8" stroke-width="1.0"/>
<text x="852.0" y="427.0" font-family="Arial, sans-serif" font-size="12" font-weight="400" fill="#52525B" text-anchor="middle">16</text>
<line x1="92.0" y1="405.0" x2="852.0" y2="405.0" stroke="#18181B" stroke-width="1.2"/>
<line x1="92.0" y1="95.0" x2="92.0" y2="405.0" stroke="#18181B" stroke-width="1.2"/>
<text x="472.0" y="453.0" font-family="Arial, sans-serif" font-size="13" font-weight="700" fill="#52525B" text-anchor="middle">blocks/SM</text>
<text x="92.0" y="83.0" font-family="Arial, sans-serif" font-size="13" font-weight="700" fill="#52525B" text-anchor="start">pJ/FLOP</text>
<polyline points="92.0,303.5 282.0,344.2 472.0,370.8 662.0,389.6 852.0,387.3" fill="none" stroke="#5B5FC7" stroke-width="2.6"/>
<circle cx="92.0" cy="303.5" r="4.0" fill="#5B5FC7"/>
<circle cx="282.0" cy="344.2" r="4.0" fill="#5B5FC7"/>
<circle cx="472.0" cy="370.8" r="4.0" fill="#5B5FC7"/>
<circle cx="662.0" cy="389.6" r="4.0" fill="#5B5FC7"/>
<circle cx="852.0" cy="387.3" r="4.0" fill="#5B5FC7"/>
<polyline points="92.0,207.7 282.0,242.8 472.0,270.2 662.0,285.9 852.0,315.1" fill="none" stroke="#D97706" stroke-width="2.6"/>
<circle cx="92.0" cy="207.7" r="4.0" fill="#D97706"/>
<circle cx="282.0" cy="242.8" r="4.0" fill="#D97706"/>
<circle cx="472.0" cy="270.2" r="4.0" fill="#D97706"/>
<circle cx="662.0" cy="285.9" r="4.0" fill="#D97706"/>
<circle cx="852.0" cy="315.1" r="4.0" fill="#D97706"/>
<polyline points="92.0,188.5 282.0,220.3 472.0,256.7 662.0,264.2 852.0,291.7" fill="none" stroke="#2563EB" stroke-width="2.6"/>
<circle cx="92.0" cy="188.5" r="4.0" fill="#2563EB"/>
<circle cx="282.0" cy="220.3" r="4.0" fill="#2563EB"/>
<circle cx="472.0" cy="256.7" r="4.0" fill="#2563EB"/>
<circle cx="662.0" cy="264.2" r="4.0" fill="#2563EB"/>
<circle cx="852.0" cy="291.7" r="4.0" fill="#2563EB"/>
<polyline points="92.0,106.4 282.0,132.6 472.0,155.7 662.0,184.2 852.0,189.2" fill="none" stroke="#B91C1C" stroke-width="2.6"/>
<circle cx="92.0" cy="106.4" r="4.0" fill="#B91C1C"/>
<circle cx="282.0" cy="132.6" r="4.0" fill="#B91C1C"/>
<circle cx="472.0" cy="155.7" r="4.0" fill="#B91C1C"/>
<circle cx="662.0" cy="184.2" r="4.0" fill="#B91C1C"/>
<circle cx="852.0" cy="189.2" r="4.0" fill="#B91C1C"/>
<rect x="690.0" y="89.0" width="16.0" height="8.0" fill="#5B5FC7"/>
<text x="714.0" y="97.0" font-family="Arial, sans-serif" font-size="12" font-weight="400" fill="#18181B" text-anchor="start">reg_mma</text>
<rect x="690.0" y="113.0" width="16.0" height="8.0" fill="#D97706"/>
<text x="714.0" y="121.0" font-family="Arial, sans-serif" font-size="12" font-weight="400" fill="#18181B" text-anchor="start">shared_mma</text>
<rect x="690.0" y="137.0" width="16.0" height="8.0" fill="#2563EB"/>
<text x="714.0" y="145.0" font-family="Arial, sans-serif" font-size="12" font-weight="400" fill="#18181B" text-anchor="start">l2_mma</text>
<rect x="690.0" y="161.0" width="16.0" height="8.0" fill="#B91C1C"/>
<text x="714.0" y="169.0" font-family="Arial, sans-serif" font-size="12" font-weight="400" fill="#18181B" text-anchor="start">dram_mma</text>
<text x="38.0" y="464.0" font-family="Arial, sans-serif" font-size="12" font-weight="400" fill="#52525B" text-anchor="start">Interpretation: decreasing pJ/FLOP with higher blocks/SM is a trend signal, not a component split.</text>
</svg>
